<?xml version="1.0" encoding="utf-8"?>
<!-- Generator: Adobe Illustrator 28.3.0, SVG Export Plug-In . SVG Version: 6.00 Build 0)  -->
<svg version="1.1" xmlns="http://www.w3.org/2000/svg" xmlns:xlink="http://www.w3.org/1999/xlink" x="0px" y="0px"
	 viewBox="0 0 3930 2642" style="enable-background:new 0 0 3930 2642;" xml:space="preserve">
<style type="text/css">
	.st0{font-family:'Georgia';}
	.st1{font-size:28px;}
	.st2{fill:#F6F3EA;}
	.st3{fill:none;}
</style>
<g id="Interactions:svg">
	<text id="text-4" transform="matrix(1 0 0 1 901.6371 356.6867)" class="st0 st1">GDP per capita: how wealthy a country is divided by the number of people living there. </text>
	<text id="text-3" transform="matrix(1 0 0 1 902.7289 997.7928)" class="st0 st1"> Social support: satisfaction with friends and family, feeling loved. </text>
	<text id="text-2" transform="matrix(1 0 0 1 910.7703 1672.5332)" class="st0 st1">Healthy life expectancy: energy level and ability to perform everyday activities.</text>
	<text id="text-1" transform="matrix(1 0 0 1 912.1425 2319.8438)" class="st0 st1">Freedom:  autonomy to make life choices. </text>
</g>
<g id="ai2html-settings">
	<rect x="-450" class="st3" width="400" height="456"/>
	<text id="ai2html-settings_00000013874546749199648910000012280573949618468517_" transform="matrix(1 0 0 1 -450 10.6499)"><tspan x="0" y="0" style="font-family:'MyriadPro-Regular'; font-size:15px;">ai2html-settings</tspan><tspan x="0" y="19" style="font-family:'MyriadPro-Regular'; font-size:15px;">settings_version: 0.120.0</tspan><tspan x="0" y="38" style="font-family:'MyriadPro-Regular'; font-size:15px;">image_format: auto</tspan><tspan x="0" y="57" style="font-family:'MyriadPro-Regular'; font-size:15px;">inline_svg: true</tspan><tspan x="0" y="76" style="font-family:'MyriadPro-Regular'; font-size:15px;">responsiveness: fixed</tspan><tspan x="0" y="95" style="font-family:'MyriadPro-Regular'; font-size:15px;">include_resizer_script: false</tspan><tspan x="0" y="114" style="font-family:'MyriadPro-Regular'; font-size:15px;">use_lazy_loader: false</tspan><tspan x="0" y="133" style="font-family:'MyriadPro-Regular'; font-size:15px;">output: one-file</tspan><tspan x="0" y="152" style="font-family:'MyriadPro-Regular'; font-size:15px;">html_output_path: ai2html-output/</tspan><tspan x="0" y="171" style="font-family:'MyriadPro-Regular'; font-size:15px;">image_output_path: ai2html-output/</tspan><tspan x="0" y="190" style="font-family:'MyriadPro-Regular'; font-size:15px;">image_source_path: </tspan><tspan x="0" y="209" style="font-family:'MyriadPro-Regular'; font-size:15px;">local_preview_template: </tspan><tspan x="0" y="228" style="font-family:'MyriadPro-Regular'; font-size:15px;">png_number_of_colors: 128</tspan><tspan x="0" y="247" style="font-family:'MyriadPro-Regular'; font-size:15px;">jpg_quality: 60</tspan><tspan x="0" y="266" style="font-family:'MyriadPro-Regular'; font-size:15px;">headline: </tspan><tspan x="0" y="285" style="font-family:'MyriadPro-Regular'; font-size:15px;">leadin: </tspan><tspan x="0" y="304" style="font-family:'MyriadPro-Regular'; font-size:15px;">notes: </tspan><tspan x="0" y="323" style="font-family:'MyriadPro-Regular'; font-size:15px;">sources: </tspan><tspan x="0" y="342" style="font-family:'MyriadPro-Regular'; font-size:15px;">credit: </tspan></text>
	<text transform="matrix(1 0 0 1 -464.6877 1549.5443)"><tspan x="0" y="0" class="st0" style="font-size:10px;">ai2html-html</tspan><tspan x="0" y="12" class="st0" style="font-size:10px;">&lt;script src=&quot;https://cdnjs.cloudflare.com/ajax/libs/d3/7.3.0/d3.min.js&quot;&gt;&lt;/script&gt;</tspan><tspan x="0" y="24" class="st0" style="font-size:10px;">&lt;style&gt;</tspan><tspan x="0" y="36" class="st0" style="font-size:10px;">.hidden { visibility: hidden; }</tspan><tspan x="0" y="48" class="st0" style="font-size:10px;">&lt;/style&gt;</tspan></text>
	<rect class="st2" width="3930" height="2642"/>
	
		<image style="overflow:visible;" width="534" height="534" xlink:href="../hug.png"  transform="matrix(1 0 0 1 264.739 956.7308)">
	</image>
	
		<image style="overflow:visible;" width="534" height="534" xlink:href="../corruption.png"  transform="matrix(1 0 0 1 3015.9495 1818.7007)">
	</image>
	
		<image style="overflow:visible;" width="535" height="535" xlink:href="../free.png"  transform="matrix(1 0 0 1 2995.4841 956.2308)">
	</image>
	
		<image style="overflow:visible;" width="535" height="535" xlink:href="../health.png"  transform="matrix(1 0 0 1 223.5806 1835.2097)">
	</image>
	
		<image style="overflow:visible;" width="534" height="534" xlink:href="../income.png"  transform="matrix(1 0 0 1 264.739 122.5417)">
	</image>
	
		<image style="overflow:visible;" width="534" height="535" xlink:href="../Generosity.png"  transform="matrix(1 0 0 1 2995.9841 122.0417)">
	</image>
</g>
<g id="Layer_1">
	<rect x="-1024.7" y="1192.3" class="st3" width="4514.7" height="3033.6"/>
</g>
</svg>
