<?xml version="1.0" encoding="utf-8"?>
<!-- Generator: Adobe Illustrator 28.3.0, SVG Export Plug-In . SVG Version: 6.00 Build 0)  -->
<svg version="1.1" xmlns="http://www.w3.org/2000/svg" xmlns:xlink="http://www.w3.org/1999/xlink" x="0px" y="0px"
	 viewBox="0 0 1920 1080" style="enable-background:new 0 0 1920 1080;" xml:space="preserve">
<style type="text/css">
	.st0{fill:#FFC44F;}
	.st1{fill:#FFDE59;}
	.st2{fill:none;}
	.st3{fill:#F6F3EA;}
	.st4{fill:#42321F;}
	.st5{fill:#41C48D;}
	.st6{fill:#E16B52;}
	.st7{fill:#BEE6CD;}
	.st8{fill-rule:evenodd;clip-rule:evenodd;fill:#F6F3EA;}
	.st9{fill-rule:evenodd;clip-rule:evenodd;fill:#42321F;}
</style>
<g id="Layer_1">
	<path class="st0" d="M950.5,1339.3h-94.8c0,0-155.4-56.2-395.5-58.1c-240.2-1.9-505.5,26.4-582.5-112.6v-74.4
		c0,0,70.1-141.3,0-271.5v-77.2c2.4,1.6,3.8,2.7,3.8,2.7s78-165.1-3.8-295.9v-78.7c0,0,70.9-154,0-278.9V-44.5
		c0,0,230-10.3,295.7-153.9h140.8c0,0,65,56.2,104,71c39,14.8,303.5,32,361.8-71h140.1c0,0,168.2,127.2,271.2,132.7
		c103,5.5,129.8-132.7,129.8-132.7h112.7c0,0,191.3,99.1,249,96c57.7-3.1,72-96,72-96h92.6c0,0,53.7,145.2,53.7,241.9
		c0,96.7-28.9,294.1-26.5,365.1c2.3,71,53.4,111.4,53.4,111.4v131.9c0,0-44,124.9-33.9,174.8c10.1,49.9,33.9,59.9,33.9,59.9v101.1
		c0,0-40.1,98.7-40.9,123.7c-0.8,25,40.9,83.4,40.9,83.4v63.4c0,0-10.5,42-58.1,59.9c-47.6,17.9-159.6,21.2-159.6,21.2h-74.2l-1-9.5
		l-17.4,9.5h-17.1c0,0-3.8-9.5-3.8-12.6c0-3.1-12.1,12.6-12.1,12.6h-13.9l-8.4-11.8l-4.6,11.8h-12.8l-14.6-17.3l-3.8,17.3h-6.4
		l-74.2-26l-105.7,26H1280l-124.6-22.2l-49.5,22.2h-63.2l-76.1-33.5L950.5,1339.3z"/>
	<path class="st1" d="M863.2,1335.9h-978v-170.6c307.7,147.7,487.7,2.9,702.4,27C725.5,1207.7,783.6,1276.7,863.2,1335.9z
		 M383.8,1022.9C199.4,1026,11.2,914.2-114.8,819.4v271.5C6.3,1152.3,172,1208,333.8,1171.2C673.3,1094,781,1239.9,958,1335.9h92.1
		C853.5,1229.7,693.6,1017.6,383.8,1022.9z M1436,455.7c71.9-371.2-96.3-496.1-107.4-657.6H927.6
		c12.8,163.6,158.4,258.1,265.7,437.7c191.9,321.2,80.7,671.8,301.4,1056.6c-69.7-116.1-198.7-350.6-219.6-528.5
		c-28.8-245.8-78.4-507.8-267.6-645.9c-144.3-105.3-199.2-235.9-220.1-320H321.7C386.4-68,521.6,157.8,736.5,269.2
		c313.8,162.7,358.2,246.9,405.3,465c41.4,191.6,155.4,428.8,262.3,549.2c-106.5-95.4-234.1-285.6-283.2-461.9
		C1059.7,602,988.6,436.2,754.8,348.2C533.7,265.1,292.5,37.3,180.9-201.9h-295.7V-48c98,118.4,345.5,429.1,621.1,484.1
		c345.2,68.9,428.9,204.9,502.1,387.9c61.3,153.2,205,356.3,351.4,471.2c-150-77.8-299.2-239.7-374.1-416.4
		c-93-219.3-222.5-345.2-503.6-383.8C265.8,465.4-2.4,208.5-114.8,91.4v278.9C-5.1,479.7,213.5,668,428.5,677.5
		C726,690.5,834,825.6,956.3,1020.9c106.8,170.5,209.9,270.6,377.5,314.7c-177.9-21.6-308.2-100.2-437.4-293.3
		C766.6,848.4,662.5,752.6,378.3,752.5C220.7,752.4-1.7,563.4-114.8,449v292.9c107,84.1,288.3,204.8,448.3,206.2
		c245.8,2.2,388.9,71.2,576.9,237.2c94.9,83.8,151.4,126.5,202.9,150.5h414.5C1471.3,1189.1,1372.6,782.8,1436,455.7z M1762.3-201.9
		h-321.1c45.9,124,122.5,363.5,67.8,608.9c-69.6,312.3-46.7,735.8,25.2,928.8h18.5C1526.9,504.9,1968.4,299.1,1762.3-201.9z
		 M1935.6,516.5v-718.3H1855c43.2,176.8,31.7,424.6-150.1,851.9c-134.2,315.4-145.1,564-139.4,685.9h13
		C1611.3,997.6,1796.7,772.9,1935.6,516.5z M1935.6,648.4c-189.9,208.7-300.8,534.6-343.2,687.5h15.9
		c83.6-172.7,233.2-350,327.3-452.7V648.4z M1935.6,1191.4V984.3c-117.6,76.9-247.1,254.1-310.3,351.6h18.4
		C1723.5,1264.9,1843.2,1218.2,1935.6,1191.4z M1935.6,1254.7c-75.9,16.8-156.2,50.8-217.7,81.1h217.7V1254.7z"/>
	<rect x="-70" y="854.4" class="st2" width="1992.6" height="217.7"/>
	<path class="st3" d="M-107,897.4h2028.8v283.8H-107V897.4z"/>
	<g>
		<g transform="translate(583.116836, 769.647629)">
		</g>
	</g>
	<g>
		<g transform="translate(590.516048, 769.647629)">
		</g>
	</g>
	<g>
		<g transform="translate(642.164899, 769.647629)">
		</g>
	</g>
	<g>
		<g transform="translate(716.785958, 769.647629)">
		</g>
	</g>
	<g>
		<g transform="translate(915.195863, 769.647629)">
		</g>
	</g>
	<rect x="411.3" y="854.4" class="st2" width="1016.2" height="65.6"/>
	<path class="st2" d="M919.4,854.4c-280.6,0-508.1,14.7-508.1,32.8c0,18.1,227.5,32.8,508.1,32.8c280.6,0,508.1-14.7,508.1-32.8
		C1427.4,869.1,1200,854.4,919.4,854.4z"/>
	<path class="st4" d="M411.3,854.4h1016.2v65.6H411.3V854.4z"/>
	<rect x="1024.6" y="442.6" class="st2" width="473.3" height="477"/>
	<path class="st5" d="M1041.9,705.3c-0.7-10.2,0.5-20.5,3.8-30.3c6.6-19.5,20.1-36.1,38.2-46.1c4.3-2.4,8.8-4.4,13.4-6.1
		c-10.8-81.3,42.8-158.8,124.3-176.4c41.6-8.9,84.1-1.2,119.8,21.9c35.7,23.1,60.3,58.6,69.3,100.2c0.5,2.3,0.9,4.6,1.3,6.9
		c5.8,1.4,11.5,3.4,17.1,6c8.8,4.1,17.1,10.4,23.7,17.6c7.3,8,12.6,16.9,16.6,27c1.3,3.3,2.4,6.7,3.2,10.2
		c15.8,5.4,26.4,16.9,25.2,28.9c-0.5,4.8-2.7,9.1-6.4,12.8c1.8,16,3.5,47.6-7.8,61.7c-3.3,4-6.5,7.8-9.5,11.1
		c-1.9,4.9-4.3,9.8-7.3,13.9c-6.5,8.9-15,14.2-21.1,17.2c-7.1,8.4-15.1,15-21.9,16.6c-1,0.2-2,0.4-3,0.4c-3.3,0-6.1-1.4-8.2-4.1
		c-8.7-11-3.2-18.2,2-25.2c3.9-5.2,7.6-10.1,6.4-16.7c-0.9-5-1-9.6-0.8-13.6c-2,2.5-4.6,5.1-8,7.6c-7.6,5.5-13.3,8.1-17.8,8.1
		c-1,0-2-0.1-2.9-0.4c-3.4-0.9-6-3.5-7.9-8c-3.7-8.6,1.1-15.3,6.7-23.1c5.2-7.2,11-15.4,12.7-27.3c1.9-13.8,8.3-22.6,14-28
		c-1.8-3.6-2.6-7.4-2.2-11.3c1-10.4,10.7-18.7,24-22.1c-1.8-3.7-3.9-7.3-6.3-10.6c-2.7-3.2-5.7-6.2-8.9-8.9c-3-2.1-6.1-4-9.3-5.6
		c-1.3,27.8-9.8,54.9-25.3,78.8c-13.3,20.6-30.8,37.5-51.1,49.8c3.1,12.5,2.4,26.2-2.5,38.1c-5.2,12.8-13.3,24-24,32.9
		c-4.9,4.1-10.1,7.7-15.6,10.9c1.1,1.5,2.3,3.1,3.4,4.6c4.3,5.4,8.7,10.7,13.4,15.7c5.6-3.5,11.7-5.1,17-4.5c0-0.3,0-0.7-0.1-1
		c0-0.4-0.1-0.9-0.1-1.3c0-0.3-0.1-0.5-0.1-0.6c0-0.2,0-0.4,0.1-0.6c0.3-29.7,19.3-45.7,37.1-45.7c8.7,0,17,2.8,24,8.2l0.2,0.2
		c1,0.8,1.8,1.5,2.7,2.3c0.9,0.6,1.8,1.3,2.7,2c1.1,1,2,2.3,2.8,3.7c0.5,0.4,1.1,0.8,1.5,1.3c6.5,6.1,8.3,20.5,4,31.6
		c-1.3,3.3-3.6,7.6-6,12.1c-3.8,7.2-8.2,15.4-10.1,22.5c-7.8,27.9-15.3,39.6-20.2,44.6c-1.9,1.9-5.2,2.9-8.6,3.4
		c-2.6,0.7-5.5,1-8.6,1c-0.6,0-1.2,0-1.8,0c-0.8,0.1-1.6,0.1-2.4,0.1c-1.5,0-3.6-0.5-5.8-1.2c-2.7-0.6-5.5-1.4-8.1-2.4
		c-13-5.1-19.4-12.9-22.4-19.9c-4.2-2.7-7.9-6.9-10.5-11.9c-2.5-4.9-3.8-10.1-3.8-15.2c-11.2-11.4-21.3-23.7-30.3-36.8
		c-6.9,1.6-14,2.5-21.1,2.7c-1.1,2.3-2.3,4.4-3.8,6.3c6.1,0.7,11.9,3.5,16.8,8.1c6.3,6,10.3,14.3,10.3,21.8c0,6.9-1.1,12.5-3.2,16.8
		c0.2,4.5-0.5,10.6-4.6,14.7c-7.3,7.3-18,8.7-34.2,8.7c-18,0-49.6-3.4-58.1-25.9c-2.1-5.6-1.7-11.4-1.4-17.6
		c0.4-6,0.8-12.2-1.4-18.2c-8.6-24.5,5-47.5,13-53.8c6.5-6.7,15.4-11.2,25.2-11.7c4.3-0.2,8.5,0.3,12.5,1.4c2.1-0.7,4.2-1.1,6.4-1.1
		c10.3,0,19.1,7.7,23.4,18.8c0.8,0,1.7-0.1,2.5-0.1c-5.8-11.1-10.9-22.7-15.2-34.5c-1.1-3.1-2.2-6.2-3.2-9.3
		c-56.6-9.3-105.4-49-124.8-105c-4.2,2-8.3,4.3-12.1,7.1c-3.2,2.7-6.2,5.6-8.9,8.9c-2.4,3.4-4.6,7-6.3,10.8
		c-1.6,4.2-2.8,8.4-3.5,12.8c0,0.2,0,0.4,0,0.6c18.6-1.3,34.5,6.1,38,19c1.9,6.9,0,14.4-5,21.3c4.1,2.7,20.6,14.8,19.9,34.4
		c0.1,10.9,1.9,12.5,10.6,20l0.5,0.5c5.5,4.8,8.5,11.8,7.8,18.3c-0.6,5.3-3.5,9.6-8.3,12.2c-7.1,3.9-15.5-5-22.8-12.8
		c-4.9-5.2-10.4-11.1-13.3-10.2c-0.2,0.1-0.2,0.1-0.3,0.2c-0.2,0.6,0,1.8,0.5,3.3c5.4,3.2,16.1,10.5,19.2,20.1
		c0.8,2.4,1,4.8,0.7,7.1c2.6,2.9,4.9,6.2,6,9.8c1.4,4.6,0.9,9.1-1.6,13.5c-0.8,1.3-1.7,2.4-2.8,3.3c-0.2,4.7-2.1,8.6-6.4,11
		c-1.9,1.1-3.9,1.6-5.9,1.6c-1.4,0-2.9-0.3-4.4-0.8c-6.8-2.5-13.3-10.5-18.5-19.1c-0.2,0-0.3,0-0.5,0c-0.5-0.1-12.2-2.3-31.7-26.8
		c-19.5-24.5-18-67.2-17.9-69c0,0,0,0,0,0c-6-3.3-10.2-8.2-11.8-14c-2.1-7.8,0.4-16.3,7.1-24
		C1035.5,710.2,1038.5,707.6,1041.9,705.3z M1288.1,786.9c4.1-3.3,7.8-7,11.1-11.1c2.2-3.1,4.2-6.4,5.9-9.9c1-2.8,1.8-5.7,2.4-8.7
		c0.1-1.7,0.2-3.4,0.1-5.1c-6.2,2.2-12.6,4-19.1,5.4c-8.3,1.8-16.6,2.9-24.8,3.3c1.2,3.3,2.5,6.5,3.8,9.8c3.3,7.7,7,15.2,11,22.5
		C1281.8,791.3,1285,789.2,1288.1,786.9z"/>
	<path class="st0" d="M1181.1,796c0.3-0.3,0.6-0.6,1-0.9c5.8-5,13.1-8.2,21-8.6c2.8-0.2,5.6,0.1,8.3,0.5
		c-7.5,4.2-13.1,12.9-14.9,23.3c-0.1,0.6-0.2,1.1-0.2,1.7c-0.1,0.6-0.2,1.1-0.2,1.7c-0.1,1.3-0.2,2.6-0.2,3.9
		c0,16.1,8.7,29.6,20.8,32.7c-1.1,1.1-2.3,2.4-3.6,3.8c-0.5,0.5-0.5,1.4,0.1,1.9c0.5,0.5,1.4,0.5,1.9-0.1c1.1-1.3,2.2-2.4,3.2-3.4
		c1.3-1.3,2.5-2.4,3.5-3.3c1.4-0.5,3.1-1.1,4.9-1.6c0.4-0.1,0.8-0.2,1.1-0.4c0.5-0.1,0.9-0.3,1.4-0.4c0.5-0.1,0.9-0.3,1.4-0.4
		c2.3-0.7,4.3-1.3,5.5-1.6l1.5-0.4l0.2-0.2c0.2-0.2,0.3-0.4,0.5-0.5c6.2,0.3,12.2,2.8,17.1,7.5c5.8,5.5,9.4,13.1,9.4,19.9
		c0,4.2-0.4,7.9-1.2,11c-0.2,1-0.5,1.9-0.9,2.8c-0.3,0.9-0.7,1.7-1.1,2.5c-0.8,1.6-1.8,3-3,4.1c-6.8,6.7-18.9,6.6-33,6.5
		c-1.7,0-3.5,0-5.3,0c-17.4,0-33.5-5.8-41.1-14.8c-3.6-4.3-5.1-9.1-4.2-14.2c1.7-9.5-0.7-20.2-2.8-29.7c-1.4-6.4-2.8-12.5-2.7-17.4
		c0.1-9.3,3.9-17.9,10-24.2C1180,797,1180.6,796.5,1181.1,796z M1255.4,878.3c0.1,0,0.3,0.1,0.4,0.1c0.4,0,0.7-0.2,1-0.4
		c0.1-0.1,0.2-0.3,0.3-0.5c0,0,0.1-0.3,0.2-0.9c0.1-0.4,0.2-1,0.3-1.6c0.7-4.8,0.7-15.2-9.5-22.1c-0.6-0.4-1.4-0.2-1.8,0.4
		c-0.4,0.6-0.2,1.4,0.4,1.8c7.8,5.3,8.9,12.7,8.6,17.4c0,0.6-0.1,1.2-0.2,1.8c-0.1,0.7-0.2,1.2-0.3,1.6c-0.1,0.5-0.2,0.8-0.2,0.9
		C1254.3,877.4,1254.7,878.1,1255.4,878.3z M1251.1,888.9c0.8,0,1.5-0.7,1.5-1.5s-0.7-1.5-1.5-1.5c-0.8,0-1.5,0.7-1.5,1.5
		S1250.3,888.9,1251.1,888.9z M1310.4,875.5c-0.3,2.4-0.4,5-0.4,7.7c0,4.2,0.8,7.9,2.1,11.1c0.3,0.7,0.6,1.4,0.9,2
		c0.3,0.6,0.6,1.3,1,1.9c4.1,6.9,10.6,11.2,15.5,13.6c-0.8-2.8-1.6-8.2,0.3-16.6c0.2-0.8,0.4-1.7,0.6-2.6c0.3-1.1,0.6-2.3,1-3.5
		c1.6-5,4-10.8,7.6-17.5c0.8-1.5,1.6-3,2.5-4.5c0.6-1.1,1.3-2.2,2-3.3c0.7-1.1,1.4-2.2,2.1-3.4c4.6-7.2,4.5-13.4,4.4-20.6
		c-0.1-7.8-0.3-16.6,5.2-28.7c3.9-8.6,11.7-14.8,20.9-16.6c2.8-0.6,5.6-0.7,8.2-0.3c-5.5-3.1-11.6-4.8-18-4.8
		c-16.7,0-34.4,15.4-34.4,43.9c0.1,0.6,0.3,1.7,0.7,3.3c0.1,0.5,0.3,1,0.5,1.6c0.2,0.5,0.3,1.1,0.5,1.7c0.8,2.4,1.9,5.3,3.5,8.7
		c0.3,0.7,0,1.4-0.6,1.8c-0.2,0.1-0.4,0.1-0.6,0.1c-0.5,0-1-0.3-1.2-0.8c-1.9-4.1-3.2-7.5-4-10.1c0,0,0,0,0,0
		c-1.4,0.9-2.9,2.1-4.4,3.6c-0.2,0.2-0.4,0.3-0.6,0.5c-1.6,1.5-3.3,3.4-5,5.5C1315.9,855,1311.7,863.6,1310.4,875.5z"/>
	<path class="st6" d="M1246.3,605.2c0.7-0.7,1.4-1.5,2.2-2.2c5.2-4.7,12.6-8.3,20.8-10.4c0.6-0.1,1.1-0.3,1.7-0.4
		c3.6-0.8,7-1.2,10.4-1.3c0.1,0,0.2,0,0.2,0c0.5,0,1,0,1.5,0c0,0,0,0,0,0c0.1,0,0.2,0,0.4,0c0.4,0,0.8,0,1.2,0c0.4,0,0.7,0,1.1,0
		c11.1,0.6,19.8,4.8,22.1,11.5c0.1,0.4,0.2,0.8,0.3,1.2c0.1,0.3,0.1,0.6,0.1,1c0.1,0.6,0.1,1.1,0.1,1.7c0,0.6-0.1,1.1-0.2,1.7
		c0,0.1,0,0.2-0.1,0.3c-0.1,0.3-0.1,0.5-0.2,0.8c0,0.2-0.1,0.3-0.2,0.5c-0.1,0.4-0.3,0.8-0.5,1.2c-0.6,1.5-1.5,2.9-2.6,4.4
		c-0.9,1.2-2,2.3-3.2,3.4c-5.6,5-13.6,8.8-22.6,10.8c-9,1.9-17.9,1.8-25-0.5c-6.9-2.2-11.2-6.1-12.3-10.9c-0.3-1.5-0.3-3,0-4.6
		C1242.4,610.6,1243.9,607.8,1246.3,605.2z M1275.4,604.3c0.7,4,5.8,6.4,11.4,5.5c3.7-0.6,6.7-2.6,8.1-5c0.2-0.4,0.4-0.8,0.6-1.2
		c0.1-0.2,0.1-0.4,0.2-0.6c0.1-0.3,0.1-0.6,0.1-0.8c0-0.3,0-0.7,0-1c0-0.1,0-0.3,0-0.4c-0.1-0.7-0.4-1.4-0.8-2.1
		c-0.8-1.3-2.3-2.3-4-2.9c0,0,0,0-0.1,0c-0.8-0.3-1.7-0.5-2.6-0.6c-0.2,0-0.4,0-0.6-0.1c-0.4,0-0.8,0-1.1,0c0,0,0,0,0,0
		c-0.4,0-0.8,0-1.2,0.1c-0.1,0-0.2,0-0.3,0c-0.2,0-0.4,0-0.6,0.1C1278.7,596.3,1274.7,600.3,1275.4,604.3z"/>
	<path class="st3" d="M1165,828.1c-0.7,6.4-0.2,13.3,2.3,20.4c2.3,6.5,1.9,13,1.5,19.3c-0.4,5.9-0.7,11.4,1.2,16.5
		c7.9,21.1,38.2,24.2,55.6,24.2c15.5,0,25.7-1.3,32.3-7.9c2.3-2.3,3.3-5.4,3.6-8.5c-0.3,0.4-0.6,0.8-1,1.2c-6.7,6.6-17.4,7.3-30,7.3
		c-1.6,0-3.2,0-4.9,0c-1.7,0-3.5,0-5.3,0c-18.2,0-35.1-6.2-43.1-15.7c-4.1-4.9-5.8-10.6-4.7-16.4c1.6-9-0.8-19.4-2.8-28.7
		c-0.9-4-1.8-7.9-2.3-11.5L1165,828.1z M1314.2,842.3c0.9-0.6,1.8-1.1,2.7-1.5c1.1,0.3,3.8,1.3,4.9,2.8c-1,1.1-2,2.2-3,3.5
		c-5.1,6.5-9.7,15.7-11,28.5c-0.3,2.4-0.4,5-0.4,7.6c0,2,0.2,5,1.1,8.3c-5-4.6-9.2-11.7-10-19.8c-0.3-3.6,0-7.3,1.2-11.1
		C1302,853.4,1307.6,846.5,1314.2,842.3z M1341.5,872.6c1.8-3.4,3.9-7,6.4-10.8c5.1-7.9,4.9-14.8,4.8-22.1c-0.1-7.5-0.3-16,4.9-27.6
		c3.5-7.7,10.8-13.5,19-15.1c1.6-0.3,3.1-0.5,4.6-0.5c3.8,0,7.3,1,10.2,2.8c0.1,0,0.1,0.1,0.2,0.1c0,0-0.1,0-0.1,0
		c-3.7-1.1-7.8-1.3-11.8-0.3c-8.2,1.9-14.7,7.8-17.7,16.1c-3.6,9.6-3.4,16.5-3.2,23.2c0.2,6.9,0.3,13.5-4.2,22.3
		c-1.1,2.2-2.3,4.4-3.5,6.7c-9.3,17.6-19.8,37.6-14.2,46.8c0,0.1,0.1,0.1,0.1,0.2c-1.8-0.7-3.4-1.4-4.4-1.8
		c-0.7-1.5-3.1-8.6,1.3-22.5C1335.5,885.1,1337.9,879.3,1341.5,872.6z M1356.9,861.8c4.8-9.4,4.7-16.3,4.5-23.5
		c-0.2-6.4-0.3-13.1,3.1-22.2c2.8-7.4,8.5-12.7,15.8-14.4c1.6-0.4,3.2-0.6,4.8-0.6c3.5,0,6.8,0.9,9.8,2.6c0.6,0.3,1.1,0.7,1.6,1.1
		c0.2,0.2,0.4,0.3,0.6,0.5c0.4,0.3,0.8,0.7,1.2,1c0.2,0.2,0.4,0.4,0.6,0.6c0.2,0.2,0.3,0.3,0.5,0.5c0.8,0.9,1.4,2.1,2,3.3
		c3,6.5,3.3,16.4,0.2,24.3c-1.3,3.2-3.5,7.4-5.8,11.9c-3.9,7.4-8.3,15.7-10.4,23c-5.2,18.5-10.2,29.7-14.3,36.5
		c-0.7,1.2-1.4,2.2-2.1,3.2c-1.1,1.6-2.2,2.8-3.2,3.8c-0.9,0.9-2.6,1.8-6.1,2.5c-0.3,0-0.5,0.1-0.8,0.1c-0.8,0.1-1.8,0.3-2.8,0.4
		c-1.5,0.1-3.1,0.2-5,0.3c-0.8,0-1.6,0-2.4,0h-0.5c-4.6,0-7.6-1.2-9.1-3.7c-4.8-8,5.8-28.1,14.3-44.2
		C1354.6,866.2,1355.8,864,1356.9,861.8z M1432.9,726.2c-0.2,0-0.3-0.1-0.4-0.1c-3.6-0.8-5.9,0.6-8,2.9c-0.7,0.8-1.3,1.6-2,2.5
		c-0.3,0.4-0.6,0.9-1,1.3c-0.2,0.3-0.5,0.6-0.7,1c-0.1,0.1-0.1,0.2-0.2,0.2c-0.2,0.3-0.4,0.6-0.6,0.8c-0.3,0.4-0.5,0.7-0.8,1.1
		c-2.1,2.7-4.8,5.7-8.7,8.6c-8.4,6.1-14.3,8.4-18.4,7.3c-2.6-0.7-4.6-2.8-6.2-6.5c-3.1-7.2,0.9-12.8,6.4-20.5
		c5.1-7.1,11.4-15.9,13.1-28.5c1.3-9.3,4.8-16.2,8.6-21.2c1.1-1.5,2.3-2.8,3.4-3.9c0.3-0.3,0.5-0.5,0.8-0.8c0.2,0.3,0.4,0.6,0.7,0.9
		c1.6,2.2,3.7,4.4,6.1,6.4c0.6,0.5,1.4,0.4,1.9-0.2c0.1-0.2,0.2-0.3,0.2-0.5c0.1-0.5,0-1-0.4-1.4c-2.6-2.1-4.6-4.3-6.2-6.7
		c-0.1-0.1-0.1-0.3-0.2-0.4c-0.2-0.3-0.3-0.5-0.5-0.8c-0.1-0.1-0.1-0.2-0.2-0.4c-0.2-0.3-0.3-0.6-0.5-0.9c-0.1-0.1-0.1-0.2-0.2-0.4
		c-1.4-3-2-6.1-1.7-9.2c0.9-9.4,9.9-16.8,22.3-19.9c1.4,3.9,2.4,7.8,3.1,11.9c0.2,1.9,0.2,3.8,0.3,5.8c-4.2,1.4-8.8,2.9-8.8,2.9
		s0,0,0,0c-0.3,0.1-0.5,0.2-0.7,0.4c-0.4,0.6-0.3,1.4,0.2,1.9c0.1,0.1,0.7,0.5,1.7,1.2c0.6,0.4,1.4,0.9,2.4,1.5
		c0.8,0.5,1.7,1,2.7,1.6c5,2.7,12.1,5.8,19.3,5.8c1.9,0,3.8-0.2,5.7-0.7c2-0.5,3.7-1.1,5.3-1.7c0.9-0.3,1.7-0.7,2.4-1
		c0.8-0.3,1.5-0.7,2.1-1.1c6.7-3.6,9.4-7.6,9.5-7.8c0.4-0.6,0.2-1.4-0.4-1.8s-1.4-0.2-1.8,0.4c0,0.1-2.6,3.9-9.2,7.3
		c0.8-1.9,1.3-3.9,1.4-6c0.2-6-0.3-12.2-1.5-18.2c13.8,5.2,22.9,15.2,21.9,25.6c-0.4,3.5-1.8,6.7-4.1,9.6c-0.4,0.5-0.8,0.9-1.2,1.3
		c-0.4,0.4-0.8,0.8-1.2,1.2c-5.2,4.7-13.2,8.1-22.8,9.1c-1.3,0.1-2.6,0.2-3.9,0.3c-2.7,0.1-5.4,0-8.2-0.2c-2.6-0.3-5.2-0.7-7.7-1.3
		c-0.7-0.2-1.4,0.3-1.6,1c-0.2,0.7,0.3,1.4,1,1.6c2.6,0.6,5.3,1.1,8,1.3c2.1,0.2,4.2,0.3,6.3,0.3c2.1,0,4.2-0.1,6.3-0.3
		c9.3-1,17.3-4.1,22.9-8.6c1.6,16.1,2.8,45.2-7.4,57.8c-1.7,2.2-3.5,4.2-5.2,6.2c3.4-11,4.6-20.8,4.7-21.5c0.1-0.7-0.4-1.4-1.2-1.5
		c-0.8-0.1-1.4,0.4-1.5,1.2c0,0,0,0.3-0.1,0.7c-0.4,3-2.2,14.9-6.6,26.3c-0.5,1.2-0.9,2.4-1.4,3.5c-0.6,1.3-1.2,2.6-1.8,3.9
		c-1.2,2.2-2.4,4.3-3.8,6.3c-4.4,6-9.8,10.3-14.7,13.4c1.4-2,2.8-4,4.1-6c0.7-1.1,1.4-2.2,2-3.4c0.7-1.2,1.4-2.4,2-3.6
		c2.4-4.6,4.2-9.1,5.1-13l4.9-21.2c0.1-0.6-0.2-1.2-0.7-1.5c-0.1,0-0.2-0.1-0.3-0.1c-0.7-0.1-1.3,0.2-1.5,0.8c0,0.1-0.1,0.1-0.1,0.2
		l0,0.1l-4.8,21.1c-1.1,5-3.8,11-7.3,16.9c-0.2,0.4-0.5,0.8-0.7,1.2c-0.2,0.4-0.5,0.8-0.7,1.2c-2.3,3.6-4.9,7.2-7.7,10.6
		c-0.7,0.8-1.4,1.6-2.1,2.4c-0.7,0.8-1.4,1.5-2.1,2.2c-5.7,6-11.6,10.4-16.7,11.5c-3.6,0.8-6.4-0.1-8.5-2.8
		c-7.4-9.4-3-15.2,2.1-21.9c3.9-5.2,8.3-11,6.9-18.8c-0.9-4.6-1-8.9-0.7-12.7c0-0.6,0.1-1.2,0.1-1.8c0.1-0.6,0.1-1.2,0.2-1.7
		c0-0.4,0.1-0.7,0.2-1.1c0.2-0.2,0.3-0.4,0.5-0.6c3.4-4.7,4.9-6.6,8.6-5.6c0.7,0.2,1.4-0.2,1.6-1
		C1434,727.1,1433.6,726.3,1432.9,726.2z M1310.9,608.7c0-0.1,0-0.1,0-0.2c0.6,0.1,1.3,0.2,1.9,0.3
		C1312.1,608.8,1311.5,608.8,1310.9,608.7z M1217.8,629.2c0-0.1,0-0.2,0-0.2l-14.5-70.2c-0.6,0.1-1.2,0.1-1.8,0.2
		c-0.6,0-1.2,0-1.8,0c-7.3-0.2-13.2-3.9-14.1-9.4c-0.9-5.2,3.1-10.4,9.5-13.1c0.5-0.2,1.1-0.4,1.7-0.6c0.6-0.2,1.1-0.4,1.7-0.5
		l-4.4-21.3c17.3,1.5,34.8,22.7,41,51.2C1241.2,594.2,1233.5,621.2,1217.8,629.2z M1308.6,541.1c-0.1,0-0.2,0.1-0.4,0.1
		c-0.5,0.1-0.9,0.1-1.4,0.2c-8.7,0.9-16.3-3-17.3-9.2c-1-5.9,4.4-11.9,12.2-14.1c0.6-0.2,1.1-0.3,1.7-0.4c0.3-0.1,0.5-0.1,0.8-0.2
		c0.3-0.1,0.6-0.1,1-0.1l-5.7-26c17.3,1.6,34.7,22.7,40.8,51.2c6.1,28.3-0.9,54.5-15.8,63.3l-14.2-65
		C1309.8,540.8,1309.2,541,1308.6,541.1z M1108.8,815.4c-2-3.7-4-7.6-5.5-10.9c5.4,3.6,12.7,9.5,14.9,16.7c0.4,1.2,0.6,2.5,0.7,3.7
		c-2.9-2.6-5.9-4.8-8.4-6.4C1109.9,817.4,1109.3,816.4,1108.8,815.4z M1117.9,833.7c-0.2-0.5-0.4-1-0.7-1.6
		c-1.3-2.9-2.7-5.8-4.1-8.6c1.8,1.4,3.7,3,5.5,4.8c0.4,0.4,0.7,0.8,1.1,1.1c0.4,0.4,0.7,0.8,1,1.2c1.8,2.2,3.3,4.7,4.1,7.3
		c1.2,3.9,0.7,7.7-1.4,11.4c-0.2,0.3-0.4,0.6-0.6,0.9c-0.5-4.6-2.1-9.8-4.3-15.1C1118.3,834.7,1118.1,834.2,1117.9,833.7z
		 M1042.1,708.4c0.5,4.8,1.4,9.6,2.7,14.2c-2.8,0.9-5.3,1.7-6,2c-0.2,0-0.5,0.1-0.7,0.3c-0.5,0.5-0.6,1.3-0.1,1.9
		c0.3,0.3,6.9,7.4,22.5,8.8c0.6,0.1,1.3,0.1,1.9,0.1c15,0,29.1-15,29.7-15.6c0.5-0.5,0.5-1.4-0.1-1.9c-0.5-0.5-1.4-0.5-1.9,0.1
		c-0.1,0.1-4.3,4.5-10.3,8.5c-0.4-1.3-0.9-2.7-1.5-3.9c-0.4-0.7-0.7-1.5-1.1-2.2c-1.6-4.2-2.8-8.6-3.6-13.1c-0.3-3.5-0.4-7-0.2-10.5
		c17.5-1.4,32.4,5.2,35.7,17c1.8,6.5-0.3,13.7-5.5,20.1c-0.5,0.6-0.9,1.2-1.4,1.7c-0.5,0.6-1.1,1.2-1.7,1.8c-3.1,3-6.8,5.8-11.1,8.2
		c-0.6,0.3-0.8,1-0.6,1.7c0,0,0,0.1,0,0.2c0.4,0.6,1.2,0.9,1.8,0.5c5.9-3.2,10.7-7.2,14.3-11.5c3.3,2.2,19.6,13.9,18.9,32.2
		c0.1,12.2,2.5,14.3,11.5,22.1l0.5,0.5c4.9,4.2,7.5,10.3,6.9,16c-0.3,3.1-1.8,7.4-6.9,10.2c-5.4,2.9-12.9-5.2-19.6-12.3
		c-5.5-5.9-10.4-11.1-14.6-11.1c-0.5,0-1,0.1-1.4,0.2c-0.9,0.3-1.6,0.9-1.9,1.7c-0.3,0.7-0.3,1.6-0.2,2.6c0.1,0.5,0.2,1.1,0.4,1.7
		c0.2,0.6,0.4,1.2,0.6,1.9c1.3,3.4,3.6,7.9,6.7,13.8c0.1,0.2,0.3,0.5,0.4,0.7c0.3,0.5,0.5,1,0.8,1.4c0.4,0.8,0.8,1.5,1.2,2.3
		c2.5,4.7,5,9.7,7.1,14.6c0.2,0.5,0.4,1,0.6,1.4c0.2,0.5,0.4,0.9,0.6,1.4c2.1,5.4,3.6,10.5,3.6,14.9c0,0.5,0,1.1-0.1,1.6
		c0,0.5-0.1,1-0.2,1.5c-0.6,3-2,5.5-4.8,7.1c-2.6,1.5-5.2,1.7-8.1,0.6c-4.9-1.8-9.8-7-14.1-13.2c-0.4-0.6-0.8-1.1-1.2-1.7
		c-8.3-12.6-14.2-28.4-14.3-28.7c-0.3-0.7-1-1-1.7-0.8c-0.7,0.3-1,1-0.8,1.7c0.3,0.8,4.4,11.8,10.7,22.8
		c-3.9-1.6-13.9-7.2-28.2-25.2c-17.1-21.5-17.4-59-17.3-66.1c2.7,1.2,5.7,2.2,9,2.8c3.3,0.7,6.8,1,10.4,1c5.6,0,11.4-0.8,17.1-2.4
		c0.7-0.2,1.1-0.9,0.9-1.6c0-0.1,0-0.1-0.1-0.1c-0.2-0.6-0.9-1-1.6-0.8c-9.1,2.5-18.2,3-26.3,1.4c-1.8-0.4-3.6-0.8-5.3-1.4
		c-0.8-0.3-1.5-0.5-2.2-0.8c-0.7-0.3-1.3-0.6-2-0.9c-6.2-3-10.3-7.6-11.9-13.1c-1.9-6.9,0.4-14.5,6.6-21.5
		C1037.1,712.5,1039.5,710.3,1042.1,708.4z M1284.4,595.3c0.2,0,0.4,0,0.6-0.1c0.1,0,0.2,0,0.3,0c0.4,0,0.8-0.1,1.2-0.1c0,0,0,0,0,0
		c0.4,0,0.8,0,1.1,0c0.2,0,0.4,0,0.6,0.1c0.9,0.1,1.8,0.3,2.6,0.6c0,0,0,0,0.1,0c1.7,0.6,3.1,1.6,4,2.9c0.4,0.6,0.7,1.3,0.8,2.1
		c0,0.1,0,0.3,0,0.4c0,0.3,0,0.7,0,1c0,0.3-0.1,0.6-0.1,0.8c0,0.2-0.1,0.4-0.2,0.6c-0.1,0.4-0.3,0.8-0.6,1.2c-1.4,2.4-4.4,4.3-8.1,5
		c-5.6,0.9-10.7-1.5-11.4-5.5C1274.7,600.3,1278.7,596.3,1284.4,595.3z M1257.2,876.5c-0.1,0.5-0.2,0.9-0.2,0.9
		c-0.1,0.2-0.2,0.4-0.3,0.5c-0.2,0.3-0.6,0.4-1,0.4c-0.1,0-0.3,0-0.4-0.1c-0.7-0.2-1.1-1-0.9-1.7c0-0.1,0.1-0.4,0.2-0.9
		c0.1-0.4,0.2-1,0.3-1.6c0.1-0.5,0.1-1.1,0.2-1.8c0.3-4.7-0.8-12.1-8.6-17.4c-0.6-0.4-0.8-1.2-0.4-1.8c0.4-0.6,1.2-0.8,1.8-0.4
		c10.2,6.9,10.2,17.4,9.5,22.1C1257.4,875.6,1257.3,876.1,1257.2,876.5z M1398.2,622.4c-0.1,0.6-0.7,1.1-1.3,1.1c-0.1,0-0.2,0-0.2,0
		c-0.7-0.1-1.2-0.8-1.1-1.5c1.1-5.9,1.7-11.5,2-16.9c0.6-12.1-0.6-22.9-2.5-32.1c-3.8-18.3-10.5-29.6-10.6-29.8
		c-0.4-0.6-0.2-1.4,0.5-1.8c0.6-0.4,1.4-0.2,1.8,0.5c0.1,0.2,7.1,12.1,11,31.3c1.9,9.2,3,20.1,2.4,32.2
		C1400,610.8,1399.4,616.5,1398.2,622.4z M1396.2,632c0,0.8-0.7,1.5-1.5,1.5c-0.8,0-1.5-0.7-1.5-1.5c0-0.8,0.7-1.5,1.5-1.5
		C1395.5,630.5,1396.2,631.2,1396.2,632z M1252.7,887.4c0,0.8-0.7,1.5-1.5,1.5c-0.8,0-1.5-0.7-1.5-1.5s0.7-1.5,1.5-1.5
		C1252,885.9,1252.7,886.6,1252.7,887.4z M1236.7,803c-0.6,0-1.1-0.1-1.7-0.1c-1-0.1-2.1-0.2-3.1-0.3c-4.3-0.7-8-0.4-12,1.6
		c-1.6,0.9-3,2.1-4.1,3.5c3-8.2,9.3-9.1,9.4-9.1c0.7-0.1,1.2-0.8,1.2-1.5c-0.1-0.7-0.8-1.2-1.5-1.2c-0.1,0-12.8,1.8-13.3,20.6
		c-0.3,14,13.4,19.9,13.6,20c0.2,0.1,0.3,0.1,0.5,0.1c0.5,0,1-0.3,1.2-0.8c0.3-0.7,0-1.4-0.7-1.7c-0.1,0-0.6-0.2-1.2-0.6
		c4.4,0.7,8.8,1.1,13.3,1.2c0.5,0,0.9,0,1.4,0c0.5,0,0.9,0,1.4,0c0.1,0,0.2,0,0.2,0c-0.2,0.4-0.5,0.9-0.7,1.3
		c-1.2,2.2-2.7,4.2-4.4,5.9l-0.2,0.1l-0.6,0.2l-0.1,0c-2.2,0.7-4.5,1.3-6.8,2c-0.5,0.1-0.9,0.3-1.4,0.4c-0.5,0.1-0.9,0.3-1.4,0.4
		c-0.5,0.2-0.9,0.3-1.4,0.4c-1.5,0.5-2.8,0.9-4,1.4c-1,0.4-1.9,0.7-2.5,1c-11.1-2.5-19.4-15.5-19.4-30.3c0-0.4,0-0.8,0-1.3
		c0-0.6,0-1.2,0.1-1.9c0-0.6,0.1-1.1,0.2-1.7c1.4-11.9,8-21.5,16.7-24.8c0.7-0.3,1.5-0.5,2.2-0.7c0.8-0.2,1.6-0.3,2.5-0.4
		c0.6-0.1,1.1-0.1,1.7-0.1c8.9,0,16.7,6.6,20.6,16.3c-1.4,0-2.8,0-4.2-0.1C1237.8,803,1237.2,803,1236.7,803z"/>
	<rect x="1024.6" y="442.6" class="st2" width="473.3" height="477"/>
	<path class="st4" d="M1186.8,511.8c20.7-4.5,43.5,19.2,50.7,52.8c7.2,33.6-3.8,64.6-24.5,69c-1.7,0.4-3.4,0.6-5.2,0.6
		c-8.6,0-17.5-4.4-25.5-12.9c-0.3-0.3-0.6-0.7-0.9-1c-9.1-9.1-16-22.4-19.4-38.5c-4.9-23.5-3-41.8,5.6-54.4
		C1172.3,519.1,1178.8,513.5,1186.8,511.8z M1185.5,549.5c0.9,5.4,6.8,9.1,14.1,9.4c0.6,0,1.2,0,1.8,0c0.6,0,1.2-0.1,1.8-0.2
		l14.5,70.2c0,0.1,0,0.2,0,0.2c15.8-8,23.4-34.9,17.2-64c-6.1-28.5-23.6-49.7-41-51.2l4.4,21.3c-0.6,0.1-1.1,0.3-1.7,0.5
		c-0.6,0.2-1.1,0.4-1.7,0.6C1188.6,539.1,1184.6,544.3,1185.5,549.5z M1182.8,668c0.2,0.5,0.7,0.8,1.2,0.8c0.2,0,0.4,0,0.6-0.1
		c4.2-2,7.1-4.8,9.1-7.7c3.6,2.6,26.3,17.7,65.4,17.7c7.3,0,15.2-0.5,23.6-1.8c28.4-4.2,51.4-18.4,68.7-42.2l7,0.1
		c0.7,1,1.5,2,2.4,3c0.3,0.3,0.6,0.5,1,0.5c0.3,0,0.6-0.1,0.9-0.3c0.6-0.5,0.6-1.3,0.1-1.9c-9.3-10.8-10-20-10-20
		c0-0.7-0.7-1.3-1.4-1.2c-0.7,0-1.3,0.7-1.2,1.4c0,0.3,0.3,4.6,3.4,10.7c-0.3,0.4-0.5,0.8-0.9,1.4c-17.1,26.2-40.8,41.7-70.3,46
		c-53.7,7.9-84.2-13.3-87.2-15.6c3.4-6.4,3.1-12.6,3.1-12.7c0-0.7-0.7-1.3-1.4-1.2c-0.7,0-1.3,0.7-1.2,1.4c0,0.6,0.7,14-12.1,20.2
		C1182.8,666.5,1182.5,667.3,1182.8,668z M1318.8,470.2c0.4-0.6,0.1-1.4-0.5-1.8c-31.5-17.6-55.1,7.7-55.4,7.9
		c-0.5,0.5-0.5,1.4,0.1,1.9c0.3,0.2,0.6,0.3,0.9,0.3c0.4,0,0.7-0.1,1-0.4c0.9-1,22.5-24,52.1-7.4
		C1317.6,471,1318.4,470.8,1318.8,470.2z M1153.5,508.7c-0.4,0.6-0.2,1.4,0.5,1.8c0.2,0.1,0.4,0.2,0.7,0.2c0.5,0,0.9-0.2,1.1-0.6
		c18.4-30.7,48-18.8,49.3-18.3c0.7,0.3,1.4,0,1.7-0.7c0.3-0.7,0-1.5-0.7-1.7C1205.8,489.2,1173.1,476,1153.5,508.7z M1041.9,705.3
		c-0.7-10.2,0.5-20.5,3.8-30.3c6.6-19.5,20.1-36.1,38.2-46.1c4.3-2.4,8.8-4.4,13.4-6.1c-10.8-81.3,42.8-158.8,124.3-176.4
		c41.6-8.9,84.1-1.2,119.8,21.9c35.7,23.1,60.3,58.6,69.3,100.2c0.5,2.3,0.9,4.6,1.3,6.9c5.8,1.4,11.5,3.4,17.1,6
		c8.8,4.1,17.1,10.4,23.7,17.6c7.3,8,12.6,16.9,16.6,27c1.3,3.3,2.4,6.7,3.2,10.2c15.8,5.4,26.4,16.9,25.2,28.9
		c-0.5,4.8-2.7,9.1-6.4,12.8c1.8,16,3.5,47.6-7.8,61.7c-3.3,4-6.5,7.8-9.5,11.1c-1.9,4.9-4.3,9.8-7.3,13.9
		c-6.5,8.9-15,14.2-21.1,17.2c-7.1,8.4-15.1,15-21.9,16.6c-1,0.2-2,0.4-3,0.4c-3.3,0-6.1-1.4-8.2-4.1c-8.7-11-3.2-18.2,2-25.2
		c3.9-5.2,7.6-10.1,6.4-16.7c-0.9-5-1-9.6-0.8-13.6c-2,2.5-4.6,5.1-8,7.6c-7.6,5.5-13.3,8.1-17.8,8.1c-1,0-2-0.1-2.9-0.4
		c-3.4-0.9-6-3.5-7.9-8c-3.7-8.6,1.1-15.3,6.7-23.1c5.2-7.2,11-15.4,12.7-27.3c1.9-13.8,8.3-22.6,14-28c-1.8-3.6-2.6-7.4-2.2-11.3
		c1-10.4,10.7-18.7,24-22.1c-1.8-3.7-3.9-7.3-6.3-10.6c-2.7-3.2-5.7-6.2-8.9-8.9c-3-2.1-6.1-4-9.3-5.6c-1.3,27.8-9.8,54.9-25.3,78.8
		c-13.3,20.6-30.8,37.5-51.1,49.8c3.1,12.5,2.4,26.2-2.5,38.1c-5.2,12.8-13.3,24-24,32.9c-4.9,4.1-10.1,7.7-15.6,10.9
		c1.1,1.5,2.3,3.1,3.4,4.6c4.3,5.4,8.7,10.7,13.4,15.7c5.6-3.5,11.7-5.1,17-4.5c0-0.3,0-0.7-0.1-1c0-0.4-0.1-0.9-0.1-1.3
		c0-0.3-0.1-0.5-0.1-0.6c0-0.2,0-0.4,0.1-0.6c0.3-29.7,19.3-45.7,37.1-45.7c8.7,0,17,2.8,24,8.2l0.2,0.2c1,0.8,1.8,1.5,2.7,2.3
		c0.9,0.6,1.8,1.3,2.7,2c1.1,1,2,2.3,2.8,3.7c0.5,0.4,1.1,0.8,1.5,1.3c6.5,6.1,8.3,20.5,4,31.6c-1.3,3.3-3.6,7.6-6,12.1
		c-3.8,7.2-8.2,15.4-10.1,22.5c-7.8,27.9-15.3,39.6-20.2,44.6c-1.9,1.9-5.2,2.9-8.6,3.4c-2.6,0.7-5.5,1-8.6,1c-0.6,0-1.2,0-1.8,0
		c-0.8,0.1-1.6,0.1-2.4,0.1c-1.5,0-3.6-0.5-5.8-1.2c-2.7-0.6-5.5-1.4-8.1-2.4c-13-5.1-19.4-12.9-22.4-19.9
		c-4.2-2.7-7.9-6.9-10.5-11.9c-2.5-4.9-3.8-10.1-3.8-15.2c-11.2-11.4-21.3-23.7-30.3-36.8c-6.9,1.6-14,2.5-21.1,2.7
		c-1.1,2.3-2.3,4.4-3.8,6.3c6.1,0.7,11.9,3.5,16.8,8.1c6.3,6,10.3,14.3,10.3,21.8c0,6.9-1.1,12.5-3.2,16.8
		c0.2,4.5-0.5,10.6-4.6,14.7c-7.3,7.3-18,8.7-34.2,8.7c-18,0-49.6-3.4-58.1-25.9c-2.1-5.6-1.7-11.4-1.4-17.6
		c0.4-6,0.8-12.2-1.4-18.2c-8.6-24.5,5-47.5,13-53.8c6.5-6.7,15.4-11.2,25.2-11.7c4.3-0.2,8.5,0.3,12.5,1.4c2.1-0.7,4.2-1.1,6.4-1.1
		c10.3,0,19.1,7.7,23.4,18.8c0.8,0,1.7-0.1,2.5-0.1c-5.8-11.1-10.9-22.7-15.2-34.5c-1.1-3.1-2.2-6.2-3.2-9.3
		c-56.6-9.3-105.4-49-124.8-105c-4.2,2-8.3,4.3-12.1,7.1c-3.2,2.7-6.2,5.6-8.9,8.9c-2.4,3.4-4.6,7-6.3,10.8
		c-1.6,4.2-2.8,8.4-3.5,12.8c0,0.2,0,0.4,0,0.6c18.6-1.3,34.5,6.1,38,19c1.9,6.9,0,14.4-5,21.3c4.1,2.7,20.6,14.8,19.9,34.4
		c0.1,10.9,1.9,12.5,10.6,20l0.5,0.5c5.5,4.8,8.5,11.8,7.8,18.3c-0.6,5.3-3.5,9.6-8.3,12.2c-7.1,3.9-15.5-5-22.8-12.8
		c-4.9-5.2-10.4-11.1-13.3-10.2c-0.2,0.1-0.2,0.1-0.3,0.2c-0.2,0.6,0,1.8,0.5,3.3c5.4,3.2,16.1,10.5,19.2,20.1
		c0.8,2.4,1,4.8,0.7,7.1c2.6,2.9,4.9,6.2,6,9.8c1.4,4.6,0.9,9.1-1.6,13.5c-0.8,1.3-1.7,2.4-2.8,3.3c-0.2,4.7-2.1,8.6-6.4,11
		c-1.9,1.1-3.9,1.6-5.9,1.6c-1.4,0-2.9-0.3-4.4-0.8c-6.8-2.5-13.3-10.5-18.5-19.1c-0.2,0-0.3,0-0.5,0c-0.5-0.1-12.2-2.3-31.7-26.8
		c-19.5-24.5-18-67.2-17.9-69c0,0,0,0,0,0c-6-3.3-10.2-8.2-11.8-14c-2.1-7.8,0.4-16.3,7.1-24
		C1035.5,710.2,1038.5,707.6,1041.9,705.3z M1417.2,657c-0.3,3.1,0.3,6.2,1.7,9.2c0.1,0.1,0.1,0.2,0.2,0.4c0.1,0.3,0.3,0.6,0.5,0.9
		c0.1,0.1,0.1,0.2,0.2,0.4c0.2,0.3,0.3,0.5,0.5,0.8c0.1,0.1,0.1,0.3,0.2,0.4c1.6,2.4,3.6,4.6,6.2,6.7c0.4,0.3,0.6,0.9,0.4,1.4
		c0,0.2-0.1,0.3-0.2,0.5c-0.5,0.6-1.3,0.7-1.9,0.2c-2.4-2-4.5-4.1-6.1-6.4c-0.2-0.3-0.4-0.6-0.7-0.9c-0.3,0.2-0.5,0.5-0.8,0.8
		c-1.1,1.2-2.3,2.4-3.4,3.9c-3.9,5-7.4,12-8.6,21.2c-1.7,12.6-8.1,21.4-13.1,28.5c-5.6,7.8-9.6,13.4-6.4,20.5
		c1.6,3.6,3.6,5.8,6.2,6.5c4.1,1.1,10-1.2,18.4-7.3c3.9-2.8,6.6-5.8,8.7-8.6c0.3-0.4,0.5-0.7,0.8-1.1c0.2-0.3,0.4-0.6,0.6-0.8
		c0.1-0.1,0.1-0.2,0.2-0.2c0.2-0.3,0.5-0.7,0.7-1c0.3-0.5,0.7-0.9,1-1.3c0.7-0.9,1.3-1.8,2-2.5c2.1-2.3,4.4-3.7,8-2.9
		c0.1,0,0.3,0.1,0.4,0.1c0.7,0.2,1.1,0.9,0.9,1.6c-0.2,0.7-0.9,1.1-1.6,1c-3.7-1-5.2,0.9-8.6,5.6c-0.1,0.2-0.3,0.4-0.5,0.6
		c-0.1,0.4-0.1,0.7-0.2,1.1c-0.1,0.5-0.1,1.1-0.2,1.7c-0.1,0.6-0.1,1.2-0.1,1.8c-0.2,3.8-0.1,8.1,0.7,12.7c1.4,7.8-3,13.6-6.9,18.8
		c-5.1,6.7-9.5,12.6-2.1,21.9c2.1,2.7,4.9,3.6,8.5,2.8c5.1-1.2,11.1-5.6,16.7-11.5c0.7-0.7,1.4-1.5,2.1-2.2c0.7-0.8,1.4-1.6,2.1-2.4
		c2.8-3.3,5.4-6.9,7.7-10.6c0.2-0.4,0.5-0.8,0.7-1.2c0.2-0.4,0.5-0.8,0.7-1.2c3.5-5.9,6.2-11.9,7.3-16.9l4.8-21.1l0-0.1
		c0-0.1,0-0.1,0.1-0.2c0.2-0.6,0.9-1,1.5-0.8c0.1,0,0.2,0.1,0.3,0.1c0.6,0.3,0.9,0.9,0.7,1.5l-4.9,21.2c-0.9,3.9-2.7,8.4-5.1,13
		c-0.6,1.2-1.3,2.4-2,3.6c-0.6,1.1-1.3,2.2-2,3.4c-1.3,2-2.6,4-4.1,6c4.9-3,10.3-7.4,14.7-13.4c1.4-1.9,2.7-4,3.8-6.3
		c0.7-1.3,1.3-2.5,1.8-3.9c0.5-1.2,1-2.3,1.4-3.5c4.4-11.4,6.2-23.3,6.6-26.3c0.1-0.5,0.1-0.7,0.1-0.7c0.1-0.7,0.7-1.2,1.5-1.2
		c0.7,0.1,1.2,0.7,1.2,1.5c-0.1,0.7-1.2,10.5-4.7,21.5c1.7-2,3.4-4,5.2-6.2c10.2-12.7,9-41.7,7.4-57.8c-5.6,4.5-13.6,7.6-22.9,8.6
		c-2.1,0.2-4.2,0.3-6.3,0.3c-2.1,0-4.2-0.1-6.3-0.3c-2.7-0.3-5.4-0.7-8-1.3c-0.7-0.2-1.2-0.9-1-1.6c0.2-0.7,0.9-1.2,1.6-1
		c2.5,0.6,5.1,1,7.7,1.3c2.8,0.3,5.5,0.3,8.2,0.2c1.3,0,2.6-0.1,3.9-0.3c9.6-1,17.6-4.3,22.8-9.1c0.4-0.4,0.8-0.8,1.2-1.2
		c0.4-0.4,0.8-0.9,1.2-1.3c2.3-2.9,3.8-6.1,4.1-9.6c1.1-10.5-8.1-20.5-21.9-25.6c1.2,6,1.7,12.2,1.5,18.2c-0.1,2.1-0.5,4.1-1.4,6
		c6.6-3.4,9.2-7.2,9.2-7.3c0.4-0.6,1.2-0.8,1.8-0.4s0.8,1.2,0.4,1.8c-0.1,0.2-2.8,4.2-9.5,7.8c-0.7,0.4-1.4,0.7-2.1,1.1
		c-0.8,0.4-1.6,0.7-2.4,1c-1.6,0.6-3.4,1.2-5.3,1.7c-1.9,0.5-3.8,0.7-5.7,0.7c-7.2,0-14.3-3-19.3-5.8c-1-0.5-1.9-1.1-2.7-1.6
		c-0.9-0.6-1.7-1.1-2.4-1.5c-1-0.7-1.6-1.1-1.7-1.2c-0.6-0.4-0.7-1.3-0.2-1.9c0.2-0.2,0.4-0.4,0.7-0.4c0,0,0,0,0,0s4.5-1.5,8.8-2.9
		c0-1.9-0.1-3.9-0.3-5.8c-0.7-4-1.7-8-3.1-11.9C1427.1,640.1,1418.1,647.6,1417.2,657z M1339.1,912.8c1.5,2.5,4.5,3.7,9.1,3.7h0.5
		c0.9,0,1.6,0,2.4,0c1.9,0,3.6-0.1,5-0.3c1-0.1,1.9-0.2,2.8-0.4c0.3,0,0.6-0.1,0.8-0.1c3.5-0.7,5.2-1.6,6.1-2.5c1-1,2-2.2,3.2-3.8
		c0.7-0.9,1.4-2,2.1-3.2c4.1-6.7,9.1-17.9,14.3-36.5c2-7.3,6.5-15.7,10.4-23c2.4-4.5,4.6-8.7,5.8-11.9c3.1-7.8,2.8-17.8-0.2-24.3
		c-0.6-1.2-1.2-2.3-2-3.3c-0.2-0.2-0.3-0.3-0.5-0.5c-0.2-0.2-0.4-0.4-0.6-0.6c-0.4-0.4-0.8-0.7-1.2-1c-0.2-0.2-0.4-0.3-0.6-0.5
		c-0.5-0.4-1.1-0.7-1.6-1.1c-2.9-1.7-6.3-2.6-9.8-2.6c-1.6,0-3.2,0.2-4.8,0.6c-7.3,1.7-13.1,7-15.8,14.4c-3.4,9.1-3.2,15.8-3.1,22.2
		c0.2,7.3,0.3,14.1-4.5,23.5c-1.1,2.2-2.3,4.4-3.5,6.8C1344.9,884.7,1334.3,904.8,1339.1,912.8z M1332.6,912.5
		c1.1,0.5,2.7,1.2,4.4,1.8c0-0.1-0.1-0.1-0.1-0.2c-5.6-9.2,4.9-29.2,14.2-46.8c1.2-2.3,2.4-4.6,3.5-6.7c4.5-8.8,4.4-15.3,4.2-22.3
		c-0.2-6.7-0.3-13.6,3.2-23.2c3.1-8.3,9.5-14.1,17.7-16.1c4-0.9,8.1-0.8,11.8,0.3c0,0,0.1,0,0.1,0c-0.1,0-0.1-0.1-0.2-0.1
		c-2.9-1.8-6.4-2.8-10.2-2.8c-1.5,0-3,0.2-4.6,0.5c-8.2,1.6-15.5,7.4-19,15.1c-5.2,11.6-5.1,20.1-4.9,27.6
		c0.1,7.3,0.3,14.3-4.8,22.1c-2.5,3.8-4.6,7.4-6.4,10.8c-3.6,6.7-6,12.5-7.6,17.5C1329.5,904,1331.9,911,1332.6,912.5z
		 M1312.1,894.3c0.3,0.7,0.6,1.4,0.9,2c0.3,0.6,0.6,1.3,1,1.9c4.1,6.9,10.6,11.2,15.5,13.6c-0.8-2.8-1.6-8.2,0.3-16.6
		c0.2-0.8,0.4-1.7,0.6-2.6c0.3-1.1,0.6-2.3,1-3.5c1.6-5,4-10.8,7.6-17.5c0.8-1.5,1.6-3,2.5-4.5c0.6-1.1,1.3-2.2,2-3.3
		c0.7-1.1,1.4-2.2,2.1-3.4c4.6-7.2,4.5-13.4,4.4-20.6c-0.1-7.8-0.3-16.6,5.2-28.7c3.9-8.6,11.7-14.8,20.9-16.6
		c2.8-0.6,5.6-0.7,8.2-0.3c-5.5-3.1-11.6-4.8-18-4.8c-16.7,0-34.4,15.4-34.4,43.9c0.1,0.6,0.3,1.7,0.7,3.3c0.1,0.5,0.3,1,0.5,1.6
		c0.2,0.5,0.3,1.1,0.5,1.7c0.8,2.4,1.9,5.3,3.5,8.7c0.3,0.7,0,1.4-0.6,1.8c-0.2,0.1-0.4,0.1-0.6,0.1c-0.5,0-1-0.3-1.2-0.8
		c-1.9-4.1-3.2-7.5-4-10.1c0,0,0,0,0,0c-1.4,0.9-2.9,2.1-4.4,3.6c-0.2,0.2-0.4,0.3-0.6,0.5c-1.6,1.5-3.3,3.4-5,5.5
		c-4.7,6.1-8.9,14.7-10.2,26.5c-0.3,2.4-0.4,5-0.4,7.7C1310,887.4,1310.8,891,1312.1,894.3z M1298.5,871.7c0.8,8,4.9,15.2,10,19.8
		c-0.9-3.3-1.1-6.2-1.1-8.3c0-2.7,0.2-5.2,0.4-7.6c1.3-12.8,5.9-22.1,11-28.5c1-1.3,2-2.4,3-3.5c-1.1-1.5-3.9-2.4-4.9-2.8
		c-0.9,0.5-1.8,1-2.7,1.5c-6.6,4.2-12.2,11.2-14.5,18.3C1298.4,864.4,1298.1,868.1,1298.5,871.7z M1165,828.1
		c-0.7,6.4-0.2,13.3,2.3,20.4c2.3,6.5,1.9,13,1.5,19.3c-0.4,5.9-0.7,11.4,1.2,16.5c7.9,21.1,38.2,24.2,55.6,24.2
		c15.5,0,25.7-1.3,32.3-7.9c2.3-2.3,3.3-5.4,3.6-8.5c-0.3,0.4-0.6,0.8-1,1.2c-6.7,6.6-17.4,7.3-30,7.3c-1.6,0-3.2,0-4.9,0
		c-1.7,0-3.5,0-5.3,0c-18.2,0-35.1-6.2-43.1-15.7c-4.1-4.9-5.8-10.6-4.7-16.4c1.6-9-0.8-19.4-2.8-28.7c-0.9-4-1.8-7.9-2.3-11.5
		L1165,828.1z M1203.1,786.5c-7.9,0.4-15.3,3.6-21,8.6c-0.3,0.3-0.7,0.6-1,0.9c-0.5,0.5-1.1,1-1.6,1.5c-6.1,6.4-10,15-10,24.2
		c0,4.9,1.3,11,2.7,17.4c2.1,9.5,4.5,20.2,2.8,29.7c-0.9,5.1,0.5,9.9,4.2,14.2c7.5,9,23.7,14.8,41.1,14.8c1.8,0,3.5,0,5.3,0
		c14.1,0.1,26.3,0.2,33-6.5c1.2-1.2,2.2-2.6,3-4.1c0.4-0.8,0.8-1.6,1.1-2.5c0.3-0.9,0.6-1.8,0.9-2.8c0.8-3.1,1.2-6.8,1.2-11
		c0-6.8-3.6-14.4-9.4-19.9c-4.9-4.6-10.9-7.2-17.1-7.5c-0.2,0.2-0.3,0.4-0.5,0.5l-0.2,0.2l-1.5,0.4c-1.2,0.4-3.2,1-5.5,1.6
		c-0.5,0.1-0.9,0.3-1.4,0.4c-0.5,0.1-0.9,0.3-1.4,0.4c-0.4,0.1-0.8,0.2-1.1,0.4c-1.8,0.6-3.5,1.1-4.9,1.6c-1.1,0.9-2.3,2-3.5,3.3
		c-1,1-2.1,2.1-3.2,3.4c-0.5,0.5-1.3,0.6-1.9,0.1c-0.5-0.5-0.6-1.3-0.1-1.9c1.3-1.4,2.5-2.7,3.6-3.8c-12.1-3.2-20.8-16.7-20.8-32.7
		c0-1.3,0.1-2.6,0.2-3.9c0.1-0.6,0.1-1.1,0.2-1.7c0.1-0.6,0.1-1.1,0.2-1.7c1.8-10.5,7.4-19.1,14.9-23.3
		C1208.7,786.6,1206,786.3,1203.1,786.5z M1221.9,786.8c-0.6,0-1.1,0.1-1.7,0.1c-0.8,0.1-1.7,0.2-2.5,0.4c-0.8,0.2-1.5,0.4-2.2,0.7
		c-8.6,3.2-15.2,12.9-16.7,24.8c-0.1,0.6-0.2,1.1-0.2,1.7c0,0.6,0,1.2-0.1,1.9c0,0.4,0,0.8,0,1.3c0,14.9,8.3,27.8,19.4,30.3
		c0.6-0.3,1.5-0.6,2.5-1c1.1-0.4,2.5-0.9,4-1.4c0.5-0.1,0.9-0.3,1.4-0.4c0.5-0.2,0.9-0.3,1.4-0.4c0.5-0.1,0.9-0.3,1.4-0.4
		c2.2-0.7,4.6-1.4,6.8-2l0.1,0l0.6-0.2l0.2-0.1c1.7-1.7,3.1-3.7,4.4-5.9c0.2-0.4,0.5-0.9,0.7-1.3c-0.1,0-0.2,0-0.2,0
		c-0.5,0-0.9,0-1.4,0c-0.5,0-0.9,0-1.4,0c-4.4-0.1-8.9-0.6-13.3-1.2c0.7,0.4,1.1,0.6,1.2,0.6c0.7,0.3,1,1.1,0.7,1.7
		c-0.2,0.5-0.7,0.8-1.2,0.8c-0.2,0-0.3,0-0.5-0.1c-0.1-0.1-13.9-5.9-13.6-20c0.4-18.8,13.2-20.6,13.3-20.6c0.7-0.1,1.4,0.4,1.5,1.2
		c0.1,0.7-0.4,1.4-1.2,1.5c-0.1,0,2.4,3.3,6.7,4c1,0.1,2.1,0.2,3.1,0.3c0.6,0,1.1,0.1,1.7,0.1c0.5,0,1,0,1.6,0
		c1.4,0,2.8,0.1,4.2,0.1C1238.6,793.4,1230.8,786.8,1221.9,786.8z M1267.5,770.7c3.3,7.7,7,15.2,11,22.5c3.3-1.9,6.5-3.9,9.6-6.2
		c4.1-3.3,7.8-7,11.1-11.1c2.2-3.1,4.2-6.4,5.9-9.9c1-2.8,1.8-5.7,2.4-8.7c0.1-1.7,0.2-3.4,0.1-5.1c-6.2,2.2-12.6,4-19.1,5.4
		c-8.3,1.8-16.6,2.9-24.8,3.3C1264.9,764.2,1266.2,767.4,1267.5,770.7z M1099.8,621.8c4.5-1.5,9-2.7,13.6-3.6
		c0.8-0.1,1.5-0.2,2.2-0.3c1.1-0.1,2.2,0.3,2.9,1.1c6.1,6.4,11.1,14.7,11.6,22.9c0.1,0.9-0.3,1.9-1,2.6c-2,2.2-4.5,4-7.3,4.5
		c-5,0.9-10,2.3-14.8,4.1c18.9,54.8,66.3,93.7,121.5,103.2c11.1,1.9,22.6,2.7,34.2,2.1c8.3-0.4,16.8-1.5,25.2-3.3
		c6.7-1.4,13.2-3.3,19.5-5.6c0,0,0,0,0,0c0,0,0,0,0.1,0c10.3-3.6,20.1-8.3,29.3-13.9c19.8-12.1,36.7-28.5,49.6-48.6
		c15.4-23.9,23.9-50.8,24.9-78.5c0.4-11.2-0.3-22.4-2.3-33.6c-0.3-1.9-0.7-3.8-1.1-5.7c-8.8-40.9-33-75.9-68.1-98.5
		c-25.6-16.5-54.8-25.1-84.6-25.1c-11,0-22.2,1.2-33.2,3.6C1142.1,466.2,1089.5,542.1,1099.8,621.8z M1118.2,821.2
		c-2.3-7.2-9.6-13.1-14.9-16.7c1.5,3.3,3.6,7.2,5.5,10.9c0.5,1,1.1,2,1.6,3.1c2.5,1.6,5.6,3.8,8.4,6.4
		C1118.8,823.7,1118.6,822.4,1118.2,821.2z M1123.5,849.4c2.1-3.7,2.6-7.5,1.4-11.4c-0.8-2.6-2.3-5.1-4.1-7.3
		c-0.3-0.4-0.7-0.8-1-1.2c-0.4-0.4-0.7-0.8-1.1-1.1c-1.7-1.8-3.6-3.4-5.5-4.8c1.4,2.8,2.8,5.7,4.1,8.6c0.2,0.5,0.5,1,0.7,1.6
		c0.2,0.5,0.4,1,0.6,1.5c2.2,5.3,3.8,10.5,4.3,15.1C1123.1,850,1123.3,849.8,1123.5,849.4z M1028.4,736.3
		c1.5,5.6,5.7,10.1,11.9,13.1c0.6,0.3,1.3,0.6,2,0.9c0.7,0.3,1.5,0.6,2.2,0.8c1.7,0.6,3.4,1,5.3,1.4c8.2,1.6,17.3,1.2,26.3-1.4
		c0.7-0.2,1.3,0.2,1.6,0.8c0,0,0.1,0.1,0.1,0.1c0.2,0.7-0.2,1.4-0.9,1.6c-5.8,1.6-11.6,2.4-17.1,2.4c-3.6,0-7.1-0.3-10.4-1
		c-3.3-0.6-6.3-1.6-9-2.8c-0.1,7,0.2,44.6,17.3,66.1c14.3,18,24.3,23.6,28.2,25.2c-6.2-11-10.4-22-10.7-22.8
		c-0.3-0.7,0.1-1.5,0.8-1.7c0.7-0.3,1.5,0.1,1.7,0.8c0.1,0.2,6,16,14.3,28.7c0.4,0.6,0.8,1.2,1.2,1.7c4.3,6.2,9.1,11.4,14.1,13.2
		c2.9,1,5.5,0.8,8.1-0.6c2.8-1.6,4.3-4,4.8-7.1c0.1-0.5,0.2-1,0.2-1.5c0-0.5,0.1-1,0.1-1.6c0-4.3-1.5-9.5-3.6-14.9
		c-0.2-0.5-0.4-0.9-0.6-1.4c-0.2-0.5-0.4-1-0.6-1.4c-2.1-4.9-4.7-9.9-7.1-14.6c-0.4-0.8-0.8-1.5-1.2-2.3c-0.3-0.5-0.5-1-0.8-1.4
		c-0.1-0.3-0.3-0.5-0.4-0.7c-3.1-5.9-5.5-10.4-6.7-13.8c-0.2-0.7-0.4-1.3-0.6-1.9c-0.2-0.6-0.3-1.2-0.4-1.7c-0.1-1-0.1-1.9,0.2-2.6
		c0.4-0.9,1-1.5,1.9-1.7c0.5-0.1,0.9-0.2,1.4-0.2c4.2,0,9,5.2,14.6,11.1c6.7,7.1,14.2,15.2,19.6,12.3c5.1-2.8,6.6-7.1,6.9-10.2
		c0.6-5.6-2-11.8-6.9-16l-0.5-0.5c-9-7.8-11.4-9.9-11.5-22.1c0.7-18.3-15.6-30-18.9-32.2c-3.6,4.3-8.5,8.3-14.3,11.5
		c-0.6,0.4-1.4,0.1-1.8-0.5c0,0,0-0.1,0-0.2c-0.2-0.6,0-1.3,0.6-1.7c4.3-2.4,8.1-5.2,11.1-8.2c0.6-0.6,1.1-1.2,1.7-1.8
		c0.5-0.6,1-1.1,1.4-1.7c5.1-6.5,7.3-13.6,5.5-20.1c-3.3-11.8-18.1-18.4-35.7-17c-0.2,3.5-0.1,7,0.2,10.5c0.8,4.5,2,8.8,3.6,13.1
		c0.4,0.8,0.7,1.5,1.1,2.2c0.6,1.3,1.2,2.6,1.5,3.9c6-4,10.2-8.4,10.3-8.5c0.5-0.5,1.3-0.6,1.9-0.1c0.5,0.5,0.6,1.3,0.1,1.9
		c-0.6,0.7-14.7,15.6-29.7,15.6c-0.6,0-1.3,0-1.9-0.1c-15.6-1.4-22.2-8.5-22.5-8.8c-0.5-0.5-0.5-1.4,0.1-1.9
		c0.2-0.2,0.4-0.3,0.7-0.3c0.7-0.2,3.2-1.1,6-2c-1.3-4.7-2.2-9.4-2.7-14.2c-2.7,2-5.1,4.1-7.1,6.4
		C1028.9,721.8,1026.5,729.5,1028.4,736.3z M1318.5,610.9c-1.7,0.4-3.4,0.5-5.1,0.5c-1.1,0-2.2-0.1-3.2-0.2c-0.2,0.5-0.4,1-0.7,1.6
		c-0.9,4-3.5,8-7.5,11.7c-6,5.4-14.5,9.4-24,11.5c-4.3,0.9-8.6,1.4-12.8,1.4c-5,0-9.7-0.7-13.8-2c-8-2.6-13.1-7.2-14.3-13.2
		c-1-4.6,0.4-9.4,3.9-13.9c1.3-2.5,3.2-5,5.8-7.3c5.9-5.3,14.3-9.4,23.8-11.4c3.1-0.7,6.1-1,9-1.2c-5.1-7.1-9.4-16.6-12-29.4
		c-3.5-17-3.2-31.3,0.9-42.9c4.1-14.3,12.5-24.6,23.8-27c20.7-4.5,43.5,19.2,50.7,52.8C1350.2,575.5,1339.2,606.5,1318.5,610.9z
		 M1284.8,590.9c-0.4,0-0.8,0-1.2,0c-0.1,0-0.2,0-0.4,0c0,0,0,0,0,0c-0.5,0-1,0-1.5,0c-0.1,0-0.2,0-0.2,0c-3.3,0.1-6.8,0.5-10.4,1.3
		c-0.6,0.1-1.2,0.3-1.7,0.4c-8.3,2-15.7,5.7-20.8,10.4c-0.8,0.7-1.5,1.4-2.2,2.2c-2.4,2.7-3.9,5.5-4.5,8.2c-0.3,1.6-0.4,3.1,0,4.6
		c1,4.8,5.4,8.7,12.3,10.9c7.1,2.3,16,2.5,25,0.5c9-1.9,17-5.8,22.6-10.8c1.2-1.1,2.3-2.3,3.2-3.4c1.1-1.4,2-2.9,2.6-4.4
		c0.2-0.4,0.3-0.8,0.5-1.2c0.1-0.2,0.1-0.3,0.2-0.5c0.1-0.3,0.1-0.5,0.2-0.8c0-0.1,0-0.2,0.1-0.3c0.1-0.6,0.2-1.1,0.2-1.7
		c0-0.6,0-1.2-0.1-1.7c0-0.3,0-0.6-0.1-1c-0.1-0.4-0.2-0.8-0.3-1.2c-2.3-6.7-10.9-10.9-22.1-11.5
		C1285.5,590.9,1285.2,590.9,1284.8,590.9z M1340.4,542.5c-6.1-28.5-23.5-49.6-40.8-51.2l5.7,26c-0.3,0-0.6,0.1-1,0.1
		c-0.3,0-0.5,0.1-0.8,0.2c-0.6,0.1-1.2,0.3-1.7,0.4c-7.9,2.2-13.2,8.2-12.2,14.1c1,6.2,8.7,10.2,17.3,9.2c0.5,0,0.9-0.1,1.4-0.2
		c0.1,0,0.2,0,0.4-0.1c0.6-0.1,1.2-0.2,1.7-0.4l14.2,65C1339.4,596.9,1346.4,570.7,1340.4,542.5z"/>
	<path class="st4" d="M779.8,840.2c-0.5,19.3,21.5,79.4,50,51.4c14.7-14.4-6.4-45.5-6-62.2C824.2,812.2,780.7,804.9,779.8,840.2z"/>
	<path class="st4" d="M815,900c-2.3,0-4.7-0.5-6.9-1.5c-18.5-8-29.5-44.8-29.1-58.3c0.5-19.6,13.9-26.3,25.2-26
		c10.1,0.3,20.9,6.1,20.8,15.5c-0.1,5.7,2.4,13.3,5.1,21.3c4.9,14.8,10.5,31.7,0.7,41.5C825.4,897.5,820.2,900,815,900z
		 M780.9,840.2c-0.4,14.5,11.5,49.2,27.9,56.3c6.7,2.9,13.6,0.9,20.4-5.7c9.1-8.8,3.6-25.1-1.1-39.4c-2.7-8.3-5.3-16-5.2-22
		c0.1-8-9.7-13.2-18.8-13.3C793.1,815.8,781.3,822.1,780.9,840.2z"/>
	<path class="st6" d="M886.8,781.8c0,14.5-4.5,27.3-11.9,37.6c-2.9,4-6.1,7.6-9.7,10.8c-12.8,11.1-29.1,16.8-45.2,16.9
		c-3.9,0-7.9-0.4-11.7-1.1c-6.7-1.2-10.9-7.6-9.7-14.3c1.2-6.7,7.6-10.9,14.3-9.7c2.4,0.4,4.8,0.7,7.3,0.7c8.7,0,17.6-2.8,24.9-7.9
		c1.5-0.9,2.9-1.9,4.1-3.1c7.9-7.1,13.1-16.5,13.2-30c0-4.4-0.7-9.5-2-14.8c-1.7-6.5,2.1-13.2,8.7-14.9c6.5-1.7,13.2,2.1,14.9,8.7
		C885.9,767.9,886.8,775,886.8,781.8z"/>
	<path class="st4" d="M820,848c-4,0-8.1-0.4-12-1.1c-3.5-0.7-6.5-2.7-8.5-5.5c-2-2.9-2.8-6.4-2.1-9.9c0.7-3.5,2.7-6.5,5.5-8.5
		c2.9-2,6.4-2.8,9.9-2.1c2.4,0.4,4.8,0.7,7.2,0.7c8.3,0,17.1-2.8,24.3-7.6l0.8-0.5c1.2-0.8,2.3-1.5,3.2-2.4
		c8.5-7.6,12.8-17.2,12.8-29.2c0-4.5-0.7-9.5-2-14.5c-1.9-7.1,2.4-14.3,9.5-16.1c3.5-0.9,6.9-0.4,10,1.3c3.1,1.7,5.2,4.7,6.1,8
		c1.9,7.2,2.9,14.4,2.9,21.3c0,13.9-4.1,27.1-12,38.2c-2.9,4.1-6.3,7.9-9.9,10.9C853.3,841.8,836.9,848,820,848z M810.3,822.6
		c-2.3,0-4.4,0.7-6.3,2c-2.5,1.7-4.1,4.3-4.7,7.2c-0.5,2.9,0.1,5.9,1.7,8.4c1.7,2.5,4.3,4.1,7.2,4.7c3.7,0.7,7.7,1.1,11.6,1.1
		c16.4,0,32.3-6,44.6-16.7c3.5-2.9,6.7-6.5,9.6-10.5c7.6-10.7,11.7-23.5,11.6-37c0-6.7-0.9-13.7-2.8-20.8c-0.8-2.9-2.7-5.3-5.2-6.8
		c-2.5-1.5-5.6-1.9-8.5-1.2c-6,1.6-9.6,7.7-8,13.7c1.3,5.2,2.1,10.3,2.1,15.1c-0.1,12.7-4.5,22.7-13.5,30.7
		c-1.1,0.9-2.3,1.7-3.5,2.5l-0.8,0.5c-7.6,5.1-16.9,8.1-25.5,8c-2.5,0-5.1-0.3-7.5-0.7C811.8,822.8,811.1,822.6,810.3,822.6z"/>
	<path class="st7" d="M1001.4,863.9l1.1,0.1L1001.4,863.9z"/>
	<path class="st7" d="M1026.1,858c0,4.4-0.3,7.5-0.4,8.3c0,0.1,0,0.1,0,0.3c-0.7,6.7-6.8,11.6-13.5,10.8c-2-0.3-3.9-0.9-5.5-2
		c-3.6-2.4-5.9-6.8-5.3-11.5l1.1,0.1l-1.1-0.1c0,0,0-0.3,0-0.5v-1.2c0-1.1,0.1-2.4,0.1-4.1c0-1.1,0-2.3,0-3.6
		c0.8-0.9,1.6-1.7,2.5-2.5c6-5.2,13.3-8.4,20.7-11.6C1025.8,847.3,1026.1,853.3,1026.1,858z"/>
	<path class="st6" d="M1024.7,840.2c-7.3,3.2-14.5,6.4-20.7,11.6c-0.9,0.8-1.7,1.6-2.5,2.5c-0.3-7.6-1.6-18.5-5.9-29.2
		c-2.4-6.3-5.9-12.3-10.4-17.7c-1.6-1.9-3.5-3.6-5.3-5.3c-3.6-3.2-7.9-6.1-13.1-8.7c-6.1-2.9-8.7-10.1-5.7-16.3
		c2.9-6.1,10.1-8.7,16.3-5.7c7.3,3.5,13.7,7.9,19.1,12.8c2.7,2.4,5.1,4.8,7.3,7.3c10.1,11.7,15.6,25.1,18.5,37
		C1023.4,832.6,1024.2,836.5,1024.7,840.2z"/>
	<path class="st4" d="M1000.6,856.9l-0.1-2.5c-0.3-7.3-1.5-18.1-5.7-28.8c-2.7-6.7-6.1-12.5-10.3-17.5c-1.3-1.6-3.1-3.3-5.3-5.3
		c-3.9-3.5-8.1-6.3-12.8-8.5c-6.5-3.2-9.3-11.1-6.3-17.6c3.2-6.5,11.1-9.3,17.6-6.3c6.9,3.3,13.5,7.7,19.3,12.9
		c2.9,2.7,5.3,5.1,7.3,7.5c8.8,10.3,15.1,22.8,18.8,37.4c1.1,4,1.9,8,2.4,11.9l0.1,0.8l-0.7,0.3c-7.7,3.3-14.5,6.5-20.4,11.5
		c-0.9,0.8-1.7,1.6-2.4,2.4L1000.6,856.9z M972.2,771.1c-4.1,0-8.3,2.4-10.1,6.4c-2.7,5.6-0.3,12.3,5.3,14.9
		c4.8,2.3,9.2,5.2,13.2,8.8c2.3,2,4,3.7,5.5,5.5c4.4,5.1,7.9,11.2,10.7,18c3.9,9.9,5.3,19.9,5.7,27.2c0.3-0.3,0.7-0.7,1.1-0.9
		c5.9-4.9,12.7-8.1,20.1-11.5c-0.5-3.6-1.3-7.2-2.3-10.9c-3.6-14.3-9.7-26.5-18.4-36.6c-2-2.3-4.3-4.7-7.2-7.2
		c-5.7-5.2-12.1-9.3-18.9-12.7C975.4,771.5,973.8,771.1,972.2,771.1z"/>
	<path class="st4" d="M1013.5,878.4c-0.5,0-0.9,0-1.5-0.1c-2.1-0.3-4.1-0.9-6-2.3c-4-2.7-6.3-7.5-5.7-12.3c0,0,0-0.1,0-0.3l0.1-1.5
		c0-0.8,0.1-2.1,0.1-4.1c0-1.1,0-2.3,0-3.5V854l0.3-0.3c0.8-0.9,1.7-1.7,2.7-2.7c6-5.1,13.1-8.4,20.9-11.7l1.2-0.5l0.1,1.3
		c0.9,5.9,1.3,11.9,1.3,17.9c0,4.1-0.3,7.1-0.4,8.4c0,0,0,0.1,0,0.3C1025.9,873.3,1020.2,878.4,1013.5,878.4z M1002.3,864.9
		c-0.1,3.9,1.7,7.3,4.9,9.5c1.5,1.1,3.2,1.7,5.1,1.9c6.1,0.7,11.7-3.7,12.4-9.9l1.1-0.1l-0.9-0.1c0.1-1.2,0.4-4.1,0.4-8.3
		c0-5.5-0.4-10.8-1.1-16.3c-7.2,3.2-13.7,6.3-19.2,10.9c-0.8,0.7-1.5,1.3-2.1,2.1c0,1.2,0,2.3,0,3.2c0,1.6,0,3.1-0.1,4.3v0.8h0.1
		L1002.3,864.9z"/>
	<path class="st4" d="M1002,864.5l-0.7-0.7h-1.1v-0.3l0.1-0.1l1.9-3.9v4.3h-0.3h0.3h-0.4h0.4h-0.9L1002,864.5z"/>
	<path class="st7" d="M1001.4,863.9l1.1,0.1L1001.4,863.9z"/>
	<path class="st4" d="M1064.7,843.7c-0.3,4-2.5,7.5-4.9,10.7c-11.5,14.9-27.1,26.7-44.7,33.5c-10.9,4.3-17.2,1.6-20.1-4
		c-4-7.7-0.9-21.2,6.5-29.6c0.8-0.9,1.6-1.7,2.5-2.5c6-5.2,13.3-8.4,20.7-11.6c3.5-1.6,7.1-3.1,10.4-4.7c5.9-2.9,19.3-5.1,25.9-0.3
		c0.9,0.7,1.6,1.5,2.3,2.4C1064.3,839.2,1064.9,841.2,1064.7,843.7z"/>
	<path class="st4" d="M1005.5,890.9c-6.7,0-9.9-3.7-11.3-6.5c-4.1-8.1-1.2-21.9,6.7-30.7c0.8-0.9,1.7-1.7,2.7-2.7
		c6-5.1,13.1-8.4,20.9-11.7l2.1-0.9c2.8-1.2,5.6-2.4,8.3-3.7c5.9-2.9,19.9-5.5,26.8-0.3c0.9,0.7,1.9,1.6,2.5,2.7
		c1.2,1.9,1.7,4.1,1.6,6.7c-0.3,4.3-2.7,7.9-5.1,11.2c-11.6,15.2-27.2,26.9-45.1,33.9C1011.5,890.4,1008.2,890.9,1005.5,890.9z
		 M1050.2,833.4c-5.6,0-11.5,1.5-14.5,3.1c-2.8,1.3-5.6,2.5-8.4,3.9l-2.1,0.9c-7.7,3.3-14.5,6.5-20.4,11.5c-0.9,0.8-1.7,1.6-2.4,2.4
		c-7.2,8-10.1,21.1-6.4,28.4c2.9,5.9,9.6,7.1,18.8,3.5c17.5-6.8,32.8-18.3,44.2-33.2c2.3-3.1,4.5-6.4,4.7-10.1
		c0.1-2.1-0.3-4-1.2-5.5c-0.5-0.8-1.2-1.5-2-2.1C1057.8,834.1,1054.1,833.4,1050.2,833.4z"/>
	<path class="st7" d="M1013.5,899.1c23.9-3.6,49.5-20.3,56.2-41.1c3.1-9.7-1.3-26.9-14.8-18.1c-4,2.7-6.5,6.8-9.6,10.5
		c-10.5,12.8-26.3,19.9-41.6,26.1C985.2,884.1,997.1,901.6,1013.5,899.1z"/>
	<path class="st4" d="M1010.3,900.4c-8.5,0-15.1-5.1-16.7-10.5c-1.6-5.7,2-11.1,9.6-14.1c15.9-6.5,30.9-13.3,41.2-25.9
		c0.7-0.8,1.3-1.7,2.1-2.7c2.3-2.9,4.5-6,7.7-8c6-4,9.9-2.8,12.1-1.1c5.1,3.7,6.3,13.7,4.1,20.3c-7.2,22.5-34.7,38.4-57,41.8
		C1012.6,900.3,1011.4,900.4,1010.3,900.4z M1061.7,838.4c-1.9,0-3.9,0.8-6.3,2.3c-2.9,1.9-5.1,4.7-7.2,7.6
		c-0.7,0.9-1.3,1.9-2.1,2.7c-10.5,12.8-25.9,19.9-42,26.4c-6.7,2.8-9.7,7.1-8.4,11.7c1.5,5.3,8.7,10.3,17.7,8.9
		c25.5-3.9,49.2-21.2,55.4-40.4c1.9-5.9,0.8-14.8-3.5-18C1064.2,838.8,1063,838.4,1061.7,838.4z"/>
	<path class="st6" d="M938.3,821.6c-5.6,3.5-12.4,2.9-18.3,0.1c-32.7-15.7-61.5-35.6-90.7-55.9c-32-22.3-62.2-48.3-84.2-80.4
		c-22-32.3-35.6-71.2-32.8-110.2c2.8-39,23.6-77.4,57.5-96.7c25.6-14.7,57.5-17.6,85.4-7.9c27.8,9.7,51,31.9,61.9,59.2
		c10.3-19.5,23.9-37.1,41.6-50c17.9-13.1,39.8-20.9,61.8-19.7c37.5,2,70.3,30.8,83.6,65.9c13.3,35.1,9.2,75-4.4,109.9
		c-13.7,35-36.3,65.6-60.2,94.6C1011.5,764.5,976.2,798.1,938.3,821.6z"/>
	<path class="st4" d="M929.6,824.9c-3.2,0-6.7-0.8-10-2.4c-33.1-15.9-62.4-36.3-90.8-55.9c-37.4-25.9-65-52.3-84.4-80.7
		c-23.9-35.1-35.6-74.3-33-110.9c2.9-41.4,25.2-78.7,57.9-97.5c25.9-14.7,58-17.6,86.2-7.9c27.5,9.6,50.4,31.1,61.8,57.8
		c11.1-20.5,24.9-36.8,41-48.6c19.1-13.9,41.2-20.9,62.4-19.7c36.2,2,70.2,28.7,84.6,66.4c12.3,32.5,10.8,71.9-4.4,110.7
		c-14.3,36.6-38.6,68.4-60.3,94.8c-30.7,37.2-66.8,69.6-101.5,91.2C936,824.1,932.9,824.9,929.6,824.9z M821.4,465.9
		c-17.7,0-35.6,4.5-51.1,13.3c-32.2,18.4-54,55.2-57,95.9c-2.7,36,8.9,74.8,32.6,109.5c19.3,28.3,46.7,54.4,83.9,80.2
		c28.3,19.6,57.6,39.9,90.6,55.8c6.1,2.9,12.5,2.9,17.3,0c34.6-21.5,70.4-53.6,101-90.7c21.7-26.3,45.8-58.2,60-94.3
		c15.1-38.4,16.5-77.2,4.4-109.3c-14-37.1-47.2-63.4-82.7-65.2c-20.7-1.1-42.4,5.7-61.1,19.5c-16.3,11.9-30.2,28.7-41.4,49.8
		l-1.1,1.9l-0.8-2c-10.8-27.1-33.8-49-61.4-58.6C844.1,467.8,832.8,465.9,821.4,465.9z"/>
	<path class="st3" d="M870.9,592.1c-1.7-9.9-0.8-18.7,2.3-26.2c-1.9,0.1-3.7,0.3-5.6,0.7c-22.4,4.1-37.6,23.5-32.8,49.9
		c4.8,26.4,25.9,39.2,48.3,35.1c14-2.5,25.2-11.2,30.6-23.7C893.3,629.1,875.3,616.3,870.9,592.1z"/>
	<path class="st4" d="M875.1,653.3c-8.4,0-16.5-2.4-23.2-7.1c-9.3-6.5-15.6-16.8-18-29.6c-4.7-25.6,9.2-46.6,33.6-51
		c1.9-0.4,3.7-0.5,5.7-0.7l1.6-0.1l-0.7,1.5c-3.2,7.6-3.9,16.3-2.3,25.6c4,22.1,20.8,36.2,41.6,35l1.6-0.1l-0.7,1.5
		c-5.3,12.8-16.7,21.7-31.2,24.4C880.5,653.2,877.7,653.3,875.1,653.3z M871.7,567.2c-1.3,0.1-2.7,0.3-3.9,0.5
		c-23.3,4.3-36.4,24.3-32,48.7c2.3,12.4,8.1,22.1,17.1,28.3c8.4,5.9,19.1,8,30,6c13.3-2.4,23.7-10.3,29.1-21.7
		c-21.2,0.4-38-14.1-42.2-36.7C868.2,583.3,868.9,574.6,871.7,567.2z"/>
	<path class="st4" d="M870.9,592.1c4.4,24.1,22.4,37,42.7,35.8c3.1-7.5,4.1-16.3,2.3-26.1c-4.4-24.1-22.4-37-42.7-35.8
		C870.1,573.4,869.2,582.2,870.9,592.1z"/>
	<path class="st4" d="M911.1,628.9c-20.7,0-37.1-14.4-41.1-36.7c-1.7-9.6-0.9-18.8,2.4-26.7l0.3-0.5h0.7
		c21.9-1.2,39.5,13.5,43.8,36.6c1.7,9.6,0.9,18.8-2.4,26.7l-0.3,0.5h-0.7C912.8,628.9,911.9,628.9,911.1,628.9z M871.8,592
		c4,21.9,20.4,35.9,41,35c2.9-7.5,3.6-15.9,2-24.9c-4-21.9-20.4-35.9-41-35C870.9,574.5,870.2,582.9,871.8,592z"/>
	<path class="st3" d="M955.8,585.6c-1.6-8.7-0.9-16.7,1.3-23.6c-1.1,0.1-2.1,0.3-3.2,0.4c-22.4,4.1-37.6,23.5-32.8,49.9
		c4.8,26.4,25.9,39.2,48.3,35.1c14.9-2.7,26.7-12.4,31.5-26.3C979.6,623.6,960.4,610.7,955.8,585.6z"/>
	<path class="st4" d="M961.1,649.3c-20.5,0-36.8-14.1-41-36.7c-4.7-25.6,9.2-46.6,33.6-51.1c1.1-0.1,2.1-0.4,3.3-0.5l1.6-0.1
		l-0.5,1.5c-2.4,7.1-2.8,14.8-1.3,23.1c4.3,23.2,21.9,37.2,43.9,34.8l1.6-0.1l-0.5,1.5c-4.8,14.1-16.8,24.1-32.2,26.9
		C966.7,649.1,963.8,649.3,961.1,649.3z M955.8,563.3c-0.5,0.1-1.2,0.1-1.6,0.3c-23.3,4.3-36.4,24.3-32,48.7
		c4.4,24.4,23.7,38.6,47.1,34.3c14.1-2.5,25.3-11.6,30.2-24.1c-22.4,1.7-40.2-12.8-44.6-36.6C953.4,577.8,953.6,570.2,955.8,563.3z"
		/>
	<path class="st4" d="M955.8,585.6c4.5,25.1,23.9,37.9,45,35.6c2.3-6.9,2.9-14.8,1.3-23.6c-4.5-25.1-23.9-37.9-45-35.6
		C954.8,569,954.2,576.9,955.8,585.6z"/>
	<path class="st4" d="M995.8,622.5c-20.7,0-36.8-14.3-41-36.7c-1.6-8.5-1.1-16.7,1.3-24l0.3-0.7l0.7-0.1
		c23.2-2.5,41.6,12.1,46.2,36.4c1.6,8.5,1.1,16.7-1.3,24l-0.3,0.7l-0.7,0.1C999.2,622.4,997.5,622.5,995.8,622.5z M956.8,585.4
		c4.1,22.9,21.5,37,43.2,34.8c2.1-6.9,2.5-14.4,1.1-22.4c-4.1-22.9-21.5-37-43.2-34.8C955.8,569.8,955.4,577.4,956.8,585.4z"/>
	<path class="st7" d="M849.7,679.4c-3.1,10.4-15.1,9.2-29.1,4.9c-14-4.1-24.8-9.6-21.7-20c3.1-10.4,16.9-15.3,30.9-11.2
		C843.8,657.2,852.8,669,849.7,679.4z"/>
	<path class="st4" d="M837.2,688.4c-4.3,0-9.7-0.9-16.8-3.1c-8.4-2.4-14-4.9-17.6-7.9c-4.7-3.7-6.4-8.3-4.8-13.3
		c3.2-10.9,17.6-16.3,32.3-12c14.5,4.3,23.9,16.7,20.7,27.5c-1.5,5.2-5.3,8.1-11.3,8.7C838.6,688.3,838,688.4,837.2,688.4z
		 M820,652.7c-9.7,0-18,4.5-20.1,12c-1.3,4.4,0,8.1,4.1,11.2c3.5,2.7,8.9,5.1,16.9,7.5c8.1,2.4,13.9,3.3,18.3,2.9
		c5.2-0.5,8.3-2.8,9.6-7.2c2.9-9.9-5.7-21.1-19.2-25.1C826.4,653.1,823,652.7,820,652.7z"/>
	<path class="st7" d="M1039.4,654.5c3.5,10.3-7.1,16.1-20.9,20.8c-13.9,4.7-25.9,6.4-29.4-3.7c-3.5-10.3,4.9-22.3,18.8-27.1
		C1021.8,639.7,1035.9,644.3,1039.4,654.5z"/>
	<path class="st4" d="M1001,680.2c-0.4,0-0.8,0-1.2,0c-6-0.3-9.9-3.1-11.6-8.1c-3.6-10.7,5.1-23.5,19.5-28.3
		c14.4-4.9,29.1-0.1,32.7,10.5c1.7,5.1,0.3,9.7-4.3,13.6c-3.6,3.1-9.1,5.7-17.3,8.5C1011.3,678.8,1005.5,680.2,1001,680.2z
		 M1019,643.6c-3.5,0-7.1,0.5-10.8,1.9c-13.3,4.5-21.5,16.1-18.1,25.8c1.5,4.3,4.7,6.5,9.9,6.8c4.4,0.3,10.1-0.9,18.1-3.6
		c8-2.7,13.3-5.3,16.7-8.1c4-3.3,5.1-7.1,3.6-11.5C1036.1,647.7,1028.2,643.6,1019,643.6z"/>
	<path class="st4" d="M923.1,685.2c-0.8,0.1-1.6,0.3-2.4,0.3c-10.4,0-19.3-5.9-22.5-12.3c-0.5-0.9-0.9-1.9-1.1-2.9
		c-0.7-3.1-0.1-5.7,2-7.5c7.6-6,20.1,6.4,20.1,6.4s14.8-13.1,23.5-6.5C950.6,668.8,934.8,683.5,923.1,685.2z"/>
	<path class="st4" d="M920.7,686.4c-11.2,0-20.3-6.4-23.5-12.8c-0.5-1.1-0.9-2.1-1.2-3.1c-0.8-3.7,0-6.7,2.4-8.5
		c7.2-5.7,18,3.3,20.8,5.9c3.2-2.5,15.9-12.1,24-6c2.3,1.7,3.1,4.1,2.3,7.1c-1.9,7.2-13.1,15.9-22.3,17.3
		C922.4,686.4,921.5,686.4,920.7,686.4z M903.9,662.1c-1.6,0-3.1,0.4-4.3,1.5c-2.3,1.7-2.1,4.5-1.7,6.5c0.1,0.8,0.5,1.7,0.9,2.7
		c2.9,5.9,11.3,11.7,21.7,11.7c0.8,0,1.5-0.1,2.1-0.1c8.4-1.3,19.1-9.5,20.7-15.9c0.5-2.1,0-3.7-1.6-4.9c-7.9-6-22,6.3-22.1,6.4
		l-0.7,0.7l-0.7-0.7C918.4,669.9,910.5,662.1,903.9,662.1z"/>
	<path class="st7" d="M923.1,685.2c-0.8,0.1-1.6,0.3-2.4,0.3c-10.4,0-19.3-5.9-22.5-12.3c2.7-2.3,6-3.7,9.7-3.7
		C916.1,669.5,922.9,676.6,923.1,685.2z"/>
	<path class="st4" d="M920.7,686.4c-11.2,0-20.3-6.4-23.5-12.8l-0.4-0.7l0.5-0.5c2.9-2.5,6.5-4,10.4-4c8.8,0,16.1,7.5,16.3,16.8v0.8
		l-0.8,0.1C922.4,686.4,921.5,686.4,920.7,686.4z M899.3,673.5c3.2,5.6,11.3,11.1,21.3,11.1c0.4,0,0.9,0,1.3-0.1
		c-0.5-7.7-6.8-13.9-14.1-13.9C904.7,670.6,901.9,671.5,899.3,673.5z"/>
	<path class="st3" d="M887.7,608.1c0.5,6.8-4.5,12.8-11.3,13.3c-6.8,0.5-12.8-4.5-13.3-11.3c-0.5-6.8,4.5-12.8,11.3-13.3
		C881.2,596.3,887.1,601.3,887.7,608.1z"/>
	<path class="st3" d="M977.5,605.9c0.5,6.8-4.5,12.8-11.3,13.3c-6.8,0.5-12.8-4.5-13.3-11.3c-0.5-6.8,4.5-12.8,11.3-13.3
		C971,594,977,599.1,977.5,605.9z"/>
	<rect x="400.5" y="441.2" class="st2" width="427.6" height="478.4"/>
	<path class="st0" d="M823.5,510.4c-2.8-4.2-7.1-7.1-12.4-8.6c-1.7-18.7-9.9-41.9-24.5-53c-12.6-9.5-28.3-9.2-45.5,1
		c-0.3,0.2-0.5,0.3-0.8,0.5c0,0-0.1-0.1-0.1-0.1c-3.7-3.1-8.3-4.5-13.1-4.1c-4.8,0.4-9.1,2.7-12.1,6.4c-3.1,3.7-4.5,8.3-4.1,13.1
		c0.3,3.7,1.8,7.2,4.2,10c-0.9,2.6-1.3,5-1.3,7.1c-4.1-0.5-8.6-0.6-13.3-0.1c-6.2-5.6-12.8-10.7-19.9-15.3
		c-34.5-22.3-75.7-29.9-115.9-21.3s-74.7,32.4-97,66.9c-11,16.9-18.3,35.5-22,54.7l-1.5,0.1c-2.8,0.2-5,2.6-4.8,5.5
		c0.2,2.6,2.2,4.5,4.7,4.7c-2,16.8-1.3,33.9,2.3,51c1.1,5,2.4,9.9,3.9,14.7c-2.9,0.4-5.8,1-8.7,1.7c-7.2,1.9-13.7,5.1-19.6,9.6
		c-3.2,2.5-6,5.5-8.6,8.8c-3.1,3.9-6,7.9-8,12.5c-3.6,8.2-5.8,17.1-4.8,26.2c1,8.8,3.4,16.6,7.5,24.5c4.2,8.1,9.9,15.5,16.2,22.2
		c-8,11-10.2,22.8-4.5,29.8c3,3.6,7.6,5.4,13.2,5.4c0.7,0,1.4-0.1,2.1-0.1c0.2,4.6,2.7,55.9,23.4,62.7c3.9,1.3,7.4,1.9,10.6,1.9
		c3.2,0,6.1-0.7,8.5-2c3.6-2,5.2-5.1,5.9-6.8c4.1,0.9,17.4,2.6,24.1-10c2.6-0.1,10.8-0.8,16.8-7c4.9-5,7.2-12.3,6.8-21.6
		c1.1-1.2,4.1-4.6,4.2-8.6c0.1-2.5-0.9-4.8-2.9-6.8c-2.3-2.4-4.1-5-5.4-7.9c-2.3-5.6-15-32.1-45.3-33c0-0.2,0-0.4,0-0.6
		c0.3-7.1-2.6-12.3-5.2-14.5c-5.1-4.6-16.3-4.7-28,0.2c-2.7-2.7-5.3-5.6-7.7-8.6c-2.9-4-5.5-8.2-7.5-12.6c-0.9-2.5-1.7-5.1-2.2-7.8
		c-0.1-1.9-0.1-3.7,0-5.6c0.4-1.7,0.8-3.4,1.4-5.1c1.1-2.2,2.4-4.4,3.8-6.4c1.7-2,3.4-3.9,5.4-5.6c1-0.7,2.1-1.3,3.2-1.8
		c3.4-1.2,6.9-2.1,10.4-2.7c2.6-0.3,5.3-0.4,7.9-0.5c12,21,29,39,49.9,52.5c23.3,15.1,49.7,23.4,76.7,24.6
		c4.4,16.5,10.3,32.6,17.6,48.1c1.3,2.8,2.7,5.5,4.1,8.3c-0.8,0.1-1.5,0.1-2.3,0.1c-4.1-10.8-12.7-18.2-22.6-18.2
		c-2.2,0-4.2,0.4-6.2,1c-3.9-1.1-7.9-1.6-12.1-1.4c-10.1,0.5-19,5.1-25.4,12.1c-7.8,7.1-19.6,28.5-11.6,51.2
		c2,5.8,1.7,11.8,1.3,17.6c-0.4,6-0.7,11.6,1.3,17c8.2,21.8,38.7,25.1,56.2,25.1c15.7,0,26.1-1.4,33.1-8.4c4-4,4.6-9.8,4.4-14.2
		c2-4.2,3-9.5,3-16.2c0-7.2-3.8-15.3-9.9-21.1c-4.7-4.4-10.4-7.1-16.2-7.8c1.4-1.9,2.6-3.9,3.6-6.1c6.8-0.2,13.6-1,20.4-2.6
		c3.1,4.4,6.2,8.8,9.6,13c6.2,7.9,12.8,15.5,19.8,22.6c0,5,1.2,10,3.7,14.7c2.5,4.9,6.2,8.9,10.2,11.6c2.9,6.8,9.1,14.4,21.7,19.3
		c2.6,1,5.3,1.8,7.9,2.3c2.1,0.7,4.1,1.1,5.6,1.1c0.8,0,1.6,0,2.3-0.1c0.6,0,1.2,0,1.7,0c3,0,5.8-0.3,8.3-1c3.3-0.5,6.5-1.5,8.4-3.3
		c4.8-4.8,12-16.1,19.6-43.1c1.9-6.8,6.1-14.8,9.8-21.8c2.3-4.4,4.5-8.5,5.8-11.8c4.2-10.7,2.5-24.7-3.8-30.6
		c-0.5-0.4-1-0.8-1.5-1.2c-0.8-1.4-1.7-2.6-2.7-3.6c-0.8-0.8-1.7-1.4-2.6-2c-0.8-0.8-1.7-1.5-2.6-2.3l-0.2-0.1
		c-6.7-5.2-14.7-7.9-23.2-7.9c-17.2,0-35.6,15.5-35.9,44.3c-0.1,0.2-0.1,0.4-0.1,0.5c0,0,0,0.2,0.1,0.6c0,0.4,0,0.8,0.1,1.2
		c0,0.3,0.1,0.7,0.1,1c-5.1-0.7-11,0.8-16.5,4.3c0,0,0,0,0,0c-4.5-4.9-8.8-10-13-15.2c-1.1-1.4-2.2-2.8-3.2-4.3c3.1-1.8,6.2-3.8,9-6
		c10.6-8,20.3-17.7,26.3-29.8c2.8-5.7,5.2-11.8,6.1-18.1c1.2-7.9,1.2-15.1-0.2-23c-1.7-9.3-5.9-18-11.4-25.8
		c26.4-19.4,46-46.8,55.9-77.8c4.7,1.2,9.6,1.9,14.7,1.9c0.9,0,1.8,0,2.6-0.1c16.6-0.8,31.2-8.9,43.4-24
		c18.1-22.4,17.3-49.8,10.4-73.7C826.3,535.4,830.2,520.5,823.5,510.4z M651,791.3c-3,2.2-6.1,4.2-9.3,6
		c-3.9-7.1-7.4-14.3-10.6-21.7c-3.6-8.8-6.8-17.9-9.4-27c2.6-0.4,5.2-0.9,7.7-1.4c11.2-2.4,21.9-6,32-10.6c0.1,0.1,0.2,0.2,0.3,0.3
		c2.3,3.1,4.3,6.4,5.9,9.9c1,2.7,1.8,5.4,2.3,8.2c0.2,2.6,0.2,5.1,0,7.7c-0.5,2.9-1.3,5.7-2.3,8.4c-1.6,3.4-3.5,6.6-5.7,9.6
		C658.5,784.6,654.9,788.1,651,791.3z M783.4,603.6c-7.2,8.9-14.8,13.4-23.3,13.9c-3.4,0.2-6.9-0.3-10.2-1.3
		c2.2-16.8,1.6-34.2-2.1-51.7c1.9-4.8,3.2-10,4-15.7c0-0.3,0.1-0.7,0.1-1c0.9,3.4,2.4,6,3.8,7.8c4.1,4.8,12.4,7.6,22,7.6
		c4.1,0,8.5-0.6,12.9-1.7C794.2,579,791.9,593.1,783.4,603.6z"/>
	<path class="st6" d="M602.8,846.1c-0.2,0.2-0.3,0.4-0.5,0.5l-0.2,0.2l-1.4,0.4c-1.2,0.3-3.1,0.9-5.3,1.6c-0.4,0.1-0.9,0.3-1.4,0.4
		c-0.5,0.1-0.9,0.3-1.4,0.4c-0.4,0.1-0.7,0.2-1.1,0.3c-1.7,0.5-3.4,1.1-4.7,1.6c-1,0.9-2.2,2-3.4,3.2c-1,1-2,2-3.1,3.2
		c-0.5,0.5-1.3,0.6-1.8,0.1c-0.5-0.5-0.6-1.3-0.1-1.8c1.3-1.4,2.4-2.6,3.5-3.7c-11.7-3-20.2-16.1-20.2-31.7c0-1.3,0.1-2.5,0.2-3.8
		c0.1-0.6,0.1-1.1,0.2-1.7c0.1-0.5,0.1-1.1,0.2-1.6c1.8-10.1,7.2-18.5,14.4-22.6c-2-0.4-4.1-0.6-6.1-0.6c-0.6,0-1.3,0-1.9,0
		c-7.7,0.4-14.8,3.5-20.4,8.3c-0.3,0.3-0.6,0.6-0.9,0.9c-0.5,0.5-1,1-1.5,1.5c-5.9,6.2-9.6,14.5-9.7,23.5c0,4.8,1.3,10.6,2.7,16.8
		c2,9.2,4.4,19.6,2.8,28.7c-0.9,4.9,0.5,9.5,4,13.7c7.3,8.7,22.9,14.3,39.8,14.3c1.7,0,3.4,0,5.1,0c13.7,0.1,25.4,0.2,32-6.3
		c1.1-1.1,2.1-2.5,2.9-4c0.4-0.7,0.7-1.5,1.1-2.4c0.3-0.8,0.6-1.7,0.8-2.7c0.8-3,1.2-6.6,1.2-10.7c0-6.5-3.5-13.9-9.1-19.2
		C614.6,848.9,608.8,846.4,602.8,846.1z M615.2,890c-0.8,0-1.5-0.7-1.5-1.5c0-0.8,0.7-1.5,1.5-1.5c0.8,0,1.5,0.7,1.5,1.5
		C616.7,889.4,616,890,615.2,890z M621.4,876.5c-0.1,0.6-0.2,1.2-0.3,1.6c-0.1,0.5-0.2,0.8-0.2,0.9c-0.1,0.2-0.2,0.3-0.3,0.5
		c-0.2,0.3-0.6,0.4-0.9,0.4c-0.1,0-0.2,0-0.4-0.1c-0.7-0.2-1.1-0.9-0.9-1.6c0-0.1,0.1-0.4,0.2-0.8c0.1-0.4,0.2-0.9,0.3-1.6
		c0.1-0.5,0.1-1.1,0.2-1.7c0.2-4.5-0.7-11.7-8.3-16.8c-0.6-0.4-0.7-1.2-0.4-1.8c0.4-0.6,1.2-0.7,1.8-0.3
		C622.1,861.7,622,871.9,621.4,876.5z M744.1,798.2c-2.5-0.3-5.2-0.2-7.9,0.3c-8.9,1.8-16.5,7.8-20.2,16.1
		c-5.3,11.7-5.2,20.3-5,27.8c0.1,7,0.2,13-4.2,20c-0.7,1.1-1.4,2.2-2.1,3.3c-0.6,1.1-1.3,2.1-1.9,3.1c-0.9,1.5-1.7,3-2.4,4.4
		c-3.5,6.5-5.9,12.2-7.4,17c-0.4,1.2-0.7,2.3-1,3.4c-0.2,0.8-0.4,1.7-0.6,2.5c-1.8,8.2-1,13.4-0.3,16.1c-4.8-2.4-11-6.5-15-13.2
		c-0.4-0.6-0.7-1.2-1-1.8c-0.3-0.6-0.6-1.3-0.9-1.9c-1.3-3.1-2.1-6.7-2.1-10.7c0-2.6,0.2-5,0.4-7.4c1.3-11.5,5.3-19.9,9.9-25.7
		c1.6-2.1,3.2-3.8,4.8-5.3c0.2-0.2,0.3-0.3,0.5-0.5c1.5-1.4,3-2.5,4.3-3.5c0,0,0,0,0,0c0.8,2.6,2,5.9,3.9,9.8
		c0.2,0.5,0.7,0.7,1.2,0.7c0.2,0,0.4,0,0.6-0.1c0.6-0.3,0.9-1.1,0.6-1.7c-1.6-3.3-2.6-6.1-3.4-8.4c-0.2-0.6-0.4-1.1-0.5-1.6
		c-0.2-0.6-0.3-1.1-0.4-1.6c-0.4-1.6-0.6-2.6-0.7-3.2c0-27.6,17.2-42.5,33.3-42.5C732.9,793.6,738.8,795.2,744.1,798.2z"/>
	<rect x="400.5" y="441.2" class="st2" width="427.6" height="478.4"/>
	<path class="st4" d="M823.5,510.4c-2.8-4.2-7.1-7.1-12.4-8.6c-1.7-18.7-9.9-41.9-24.5-53c-12.6-9.5-28.3-9.2-45.5,1
		c-0.3,0.2-0.5,0.3-0.8,0.5c0,0-0.1-0.1-0.1-0.1c-3.7-3.1-8.3-4.5-13.1-4.1c-4.8,0.4-9.1,2.7-12.1,6.4c-3.1,3.7-4.5,8.3-4.1,13.1
		c0.3,3.7,1.8,7.2,4.2,10c-0.9,2.6-1.3,5-1.3,7.1c-4.1-0.5-8.6-0.6-13.3-0.1c-6.2-5.6-12.8-10.7-19.9-15.3
		c-34.5-22.3-75.7-29.9-115.9-21.3s-74.7,32.4-97,66.9c-11,16.9-18.3,35.5-22,54.7l-1.5,0.1c-2.8,0.2-5,2.6-4.8,5.5
		c0.2,2.6,2.2,4.5,4.7,4.7c-2,16.8-1.3,33.9,2.3,51c1.1,5,2.4,9.9,3.9,14.7c-2.9,0.4-5.8,1-8.7,1.7c-7.2,1.9-13.7,5.1-19.6,9.6
		c-3.2,2.5-6,5.5-8.6,8.8c-3.1,3.9-6,7.9-8,12.5c-3.6,8.2-5.8,17.1-4.8,26.2c1,8.8,3.4,16.6,7.5,24.5c4.2,8.1,9.9,15.5,16.2,22.2
		c-8,11-10.2,22.8-4.5,29.8c3,3.6,7.6,5.4,13.2,5.4c0.7,0,1.4-0.1,2.1-0.1c0.2,4.6,2.7,55.9,23.4,62.7c3.9,1.3,7.4,1.9,10.6,1.9
		c3.2,0,6.1-0.7,8.5-2c3.6-2,5.2-5.1,5.9-6.8c4.1,0.9,17.4,2.6,24.1-10c2.6-0.1,10.8-0.8,16.8-7c4.9-5,7.2-12.3,6.8-21.6
		c1.1-1.2,4.1-4.6,4.2-8.6c0.1-2.5-0.9-4.8-2.9-6.8c-2.3-2.4-4.1-5-5.4-7.9c-2.3-5.6-15-32.1-45.3-33c0-0.2,0-0.4,0-0.6
		c0.3-7.1-2.6-12.3-5.2-14.5c-5.1-4.6-16.3-4.7-28,0.2c-2.7-2.7-5.3-5.6-7.7-8.6c-2.9-4-5.5-8.2-7.5-12.6c-0.9-2.5-1.7-5.1-2.2-7.8
		c-0.1-1.9-0.1-3.7,0-5.6c0.4-1.7,0.8-3.4,1.4-5.1c1.1-2.2,2.4-4.4,3.8-6.4c1.7-2,3.4-3.9,5.4-5.6c1-0.7,2.1-1.3,3.2-1.8
		c3.4-1.2,6.9-2.1,10.4-2.7c2.6-0.3,5.3-0.4,7.9-0.5c12,21,29,39,49.9,52.5c23.3,15.1,49.7,23.4,76.7,24.6
		c4.4,16.5,10.3,32.6,17.6,48.1c1.3,2.8,2.7,5.5,4.1,8.3c-0.8,0.1-1.5,0.1-2.3,0.1c-4.1-10.8-12.7-18.2-22.6-18.2
		c-2.2,0-4.2,0.4-6.2,1c-3.9-1.1-7.9-1.6-12.1-1.4c-10.1,0.5-19,5.1-25.4,12.1c-7.8,7.1-19.6,28.5-11.6,51.2
		c2,5.8,1.7,11.8,1.3,17.6c-0.4,6-0.7,11.6,1.3,17c8.2,21.8,38.7,25.1,56.2,25.1c15.7,0,26.1-1.4,33.1-8.4c4-4,4.6-9.8,4.4-14.2
		c2-4.2,3-9.5,3-16.2c0-7.2-3.8-15.3-9.9-21.1c-4.7-4.4-10.4-7.1-16.2-7.8c1.4-1.9,2.6-3.9,3.6-6.1c6.8-0.2,13.6-1,20.4-2.6
		c3.1,4.4,6.2,8.8,9.6,13c6.2,7.9,12.8,15.5,19.8,22.6c0,5,1.2,10,3.7,14.7c2.5,4.9,6.2,8.9,10.2,11.6c2.9,6.8,9.1,14.4,21.7,19.3
		c2.6,1,5.3,1.8,7.9,2.3c2.1,0.7,4.1,1.1,5.6,1.1c0.8,0,1.6,0,2.3-0.1c0.6,0,1.2,0,1.7,0c3,0,5.8-0.3,8.3-1c3.3-0.5,6.5-1.5,8.4-3.3
		c4.8-4.8,12-16.1,19.6-43.1c1.9-6.8,6.1-14.8,9.8-21.8c2.3-4.4,4.5-8.5,5.8-11.8c4.2-10.7,2.5-24.7-3.8-30.6
		c-0.5-0.4-1-0.8-1.5-1.2c-0.8-1.4-1.7-2.6-2.7-3.6c-0.8-0.8-1.7-1.4-2.6-2c-0.8-0.8-1.7-1.5-2.6-2.3l-0.2-0.1
		c-6.7-5.2-14.7-7.9-23.2-7.9c-17.2,0-35.6,15.5-35.9,44.3c-0.1,0.2-0.1,0.4-0.1,0.5c0,0,0,0.2,0.1,0.6c0,0.4,0,0.8,0.1,1.2
		c0,0.3,0.1,0.7,0.1,1c-5.1-0.7-11,0.8-16.5,4.3c0,0,0,0,0,0c-4.5-4.9-8.8-10-13-15.2c-1.1-1.4-2.2-2.8-3.2-4.3c3.1-1.8,6.2-3.8,9-6
		c10.6-8,20.3-17.7,26.3-29.8c2.8-5.7,5.2-11.8,6.1-18.1c1.2-7.9,1.2-15.1-0.2-23c-1.7-9.3-5.9-18-11.4-25.8
		c26.4-19.4,46-46.8,55.9-77.8c4.7,1.2,9.6,1.9,14.7,1.9c0.9,0,1.8,0,2.6-0.1c16.6-0.8,31.2-8.9,43.4-24
		c18.1-22.4,17.3-49.8,10.4-73.7C826.3,535.4,830.2,520.5,823.5,510.4z M434.3,758.5c3.1,2.7,6.6,4.5,10.9,4.5
		c3.8,0,8.3-1.7,10.9-4.5c2.7-2.9,4.7-6.8,4.5-10.9c-0.2-3.9-1.4-8.2-4.5-10.9c-1.8-1.6-3.6-3.2-5.3-4.9c10.3-4,20.1-4.1,24.3-0.3
		c2.1,1.9,4.6,6.4,4.3,12.5c0,0.2,0,0.5,0,0.7c0,0.4-0.1,0.8-0.1,1.3c-0.1,0.4-0.1,0.9-0.2,1.3c-1.2,6.5-5.5,15.4-17.9,25
		c-0.5,0.4-0.6,1-0.4,1.5c0,0.1,0.1,0.2,0.1,0.3c0.4,0.6,1.2,0.7,1.8,0.2c10.6-8.2,15.6-16,17.8-22.4c2.2-1.5,5.3-3.3,7.4-4
		c24.4,3.9,35,26,37,30.9c1.4,3.2,3.3,6.2,5.9,8.7c1.5,1.5,2.2,3.1,2.2,4.9c-0.1,3.8-3.6,7.1-3.8,7.2c0,0-0.1,0-0.1,0
		c-0.2,0.2-0.4,0.3-0.6,0.4c-5.4,4-10,5.3-13.7,3.8c-5.6-2.3-7.8-10.3-8.4-13.4c-0.2-0.7-0.2-1.1-0.2-1.2c-0.1-0.5-0.4-0.9-0.8-1
		l-5.5-2c-0.7-0.2-1.4,0.1-1.6,0.8s0.1,1.4,0.8,1.6l4.8,1.8c0.5,2.8,2.8,12.4,9.6,15.6c0.1,0.2,0.2,0.4,0.4,0.6
		c0.1,0,6.6,4.8,7.5,10.4c0.1,0.6,0.6,1.1,1.3,1.1c0.1,0,0.1,0,0.2,0c0.7-0.1,1.2-0.8,1.1-1.5c-0.6-3.9-3.4-7.3-5.6-9.5
		c3.2-0.1,6.7-1.4,10.6-4c0,7.7-2,13.7-6,17.8c-6,6.1-14.5,6.3-15.6,6.3c-1-0.2-11.6-2.8-14-10.3c-0.2-0.7-0.9-1.1-1.6-0.8
		c-0.7,0.2-1,0.9-0.8,1.6c2.3,7.4,10.8,10.6,14.4,11.6c-7.1,12.1-21.2,7.9-21.9,7.7c0,0-0.1,0-0.1,0c-1.2-0.5-11.3-5.4-11.8-13.3
		c0-0.7-0.6-1.3-1.4-1.2c-0.7,0-1.2,0.6-1.2,1.4c0.5,8.4,9.4,13.6,12.4,15.1c-0.6,1.4-1.9,3.8-4.8,5.4c-4.1,2.3-9.8,2.2-16.9-0.1
		c-19.3-6.4-21.6-59.1-21.7-60.6c2.6-0.4,5.4-1.1,8.2-2.2c0.7-0.3,1-1,0.7-1.7c0,0,0,0,0,0c-0.3-0.6-1-0.9-1.6-0.7
		c-1.8,0.7-3.7,1.3-5.4,1.7c-7.8,1.8-14.4,0.5-17.9-3.7c-4.9-6-2.9-16.4,4.3-26.2C428.9,753.6,431.6,756.1,434.3,758.5z
		 M621.8,901.2c-6.4,6.4-16.3,7.6-31.3,7.6c-16.8,0-46.1-3-53.8-23.4c-1.8-4.9-1.5-10.3-1.2-15.9c0.4-6.1,0.8-12.4-1.5-18.6
		c-2.4-6.8-2.9-13.5-2.2-19.7l2.3,0.1c0.5,3.5,1.3,7.3,2.2,11.2c2,8.9,4.2,19.1,2.7,27.7c-1,5.6,0.6,11.1,4.6,15.8
		c7.8,9.2,24.1,15.2,41.7,15.2c1.7,0,3.4,0,5.1,0c1.6,0,3.2,0,4.7,0c12.2,0,22.6-0.7,29.1-7.1c0.4-0.3,0.7-0.7,1-1.1
		C625,896,624,899,621.8,901.2z M619.4,853.4c5.6,5.3,9.1,12.7,9.1,19.2c0,4.1-0.4,7.6-1.2,10.7c-0.2,0.9-0.5,1.8-0.8,2.7
		c-0.3,0.8-0.7,1.6-1.1,2.4c-0.8,1.5-1.8,2.9-2.9,4c-6.5,6.5-18.3,6.4-32,6.3c-1.7,0-3.4,0-5.1,0c-16.8,0-32.5-5.6-39.8-14.3
		c-3.5-4.2-4.9-8.8-4-13.7c1.6-9.2-0.7-19.6-2.8-28.7c-1.4-6.2-2.7-12.1-2.7-16.8c0.1-9,3.8-17.3,9.7-23.5c0.5-0.5,1-1,1.5-1.5
		c0.3-0.3,0.6-0.6,0.9-0.9c5.6-4.8,12.7-7.9,20.4-8.3c0.6,0,1.3,0,1.9,0c2.1,0,4.1,0.2,6.1,0.6c-7.2,4.1-12.7,12.5-14.4,22.6
		c-0.1,0.5-0.2,1.1-0.2,1.6c-0.1,0.6-0.1,1.1-0.2,1.7c-0.1,1.2-0.2,2.5-0.2,3.8c0,15.6,8.4,28.6,20.2,31.7c-1.1,1.1-2.3,2.3-3.5,3.7
		c-0.5,0.5-0.4,1.3,0.1,1.8c0.5,0.5,1.3,0.4,1.8-0.1c1.1-1.2,2.1-2.3,3.1-3.2c1.2-1.2,2.4-2.3,3.4-3.2c1.4-0.5,3-1,4.7-1.6
		c0.4-0.1,0.7-0.2,1.1-0.3c0.5-0.1,0.9-0.3,1.4-0.4c0.5-0.1,0.9-0.3,1.4-0.4c2.2-0.7,4.2-1.2,5.3-1.6l1.4-0.4l0.2-0.2
		c0.2-0.2,0.3-0.4,0.5-0.5C608.8,846.4,614.6,848.9,619.4,853.4z M589.9,800.1c-0.1,0-12.4,1.7-12.9,19.9
		c-0.3,13.6,13,19.2,13.1,19.3c0.2,0.1,0.3,0.1,0.5,0.1c0.5,0,1-0.3,1.2-0.8c0.3-0.6,0-1.4-0.7-1.7c-0.1,0-0.5-0.2-1.2-0.6
		c4.3,0.7,8.6,1.1,12.8,1.2c0.4,0,0.9,0,1.4,0c0.5,0,0.9,0,1.4,0c0.1,0,0.1,0,0.2,0c-0.2,0.4-0.4,0.8-0.7,1.2
		c-1.2,2.1-2.6,4-4.2,5.7l-0.2,0l-0.5,0.2l-0.1,0c-2.1,0.6-4.4,1.3-6.6,2c-0.5,0.1-0.9,0.3-1.4,0.4c-0.5,0.1-0.9,0.3-1.4,0.4
		c-0.5,0.1-0.9,0.3-1.4,0.4c-1.4,0.5-2.7,0.9-3.8,1.3c-1,0.4-1.8,0.7-2.4,1c-10.7-2.4-18.8-15-18.8-29.4c0-0.4,0-0.8,0-1.2
		c0-0.6,0-1.2,0.1-1.8c0-0.6,0.1-1.1,0.2-1.7c1.4-11.5,7.8-20.9,16.2-24c0.7-0.3,1.4-0.5,2.1-0.6c0.8-0.2,1.6-0.3,2.4-0.4
		c0.5-0.1,1.1-0.1,1.6-0.1c8.6,0,16.1,6.4,19.9,15.8c-1.4,0-2.7,0-4.1-0.1c-0.5,0-1,0-1.5,0c-0.5,0-1.1-0.1-1.6-0.1
		c-1-0.1-2-0.2-3-0.3c-4.1-0.7-7.9-0.6-11.6,1.6c-1.4,0.8-2.9,2.1-4.1,3.5c2.8-7.9,8.8-8.9,9.2-8.9c0.7-0.1,1.2-0.7,1.1-1.4
		C591.2,800.5,590.6,800,589.9,800.1z M754.3,807.5c0.6,0.3,1.1,0.7,1.6,1c0.2,0.1,0.4,0.3,0.6,0.4c0.4,0.3,0.8,0.6,1.1,1
		c0,0,0,0,0,0c0.2,0.2,0.4,0.4,0.5,0.6c0.2,0.2,0.3,0.3,0.5,0.5c0.7,0.9,1.4,2,2,3.2c2.9,6.3,3.2,15.9,0.2,23.5
		c-1.2,3.1-3.4,7.2-5.7,11.5c-3.8,7.1-8,15.2-10,22.3c-5,17.9-9.8,28.8-13.8,35.3c-0.7,1.2-1.4,2.2-2,3.1c-1.1,1.5-2.1,2.7-3.1,3.7
		c-0.9,0.9-2.6,1.8-5.9,2.4c-0.3,0-0.6,0.1-0.9,0.2c-0.8,0.1-1.7,0.2-2.6,0.3c-1.4,0.1-3,0.2-4.9,0.3c-0.7,0-1.5,0-2.3,0h-0.5
		c-4.5,0-7.4-1.2-8.8-3.6c-4.7-7.7,5.6-27.2,13.8-42.8c1.2-2.2,2.3-4.4,3.4-6.5c4.7-9.1,4.5-15.7,4.3-22.8c-0.2-6.2-0.3-12.7,3-21.5
		c2.7-7.2,8.3-12.3,15.3-13.9c1.5-0.4,3.1-0.5,4.6-0.5C748.2,805,751.5,805.9,754.3,807.5z M751.1,803.3
		C751.1,803.4,751.1,803.4,751.1,803.3C751.1,803.4,751.1,803.4,751.1,803.3c-3.6-1-7.5-1.2-11.4-0.3c-7.9,1.9-14.2,7.5-17.2,15.5
		c-3.4,9.3-3.3,16-3.1,22.5c0.2,6.7,0.3,13-4.1,21.5c-1.1,2.1-2.2,4.3-3.4,6.5c-9,17.1-19.1,36.4-13.7,45.3c0,0.1,0.1,0.1,0.1,0.2
		c-1.7-0.7-3.2-1.3-4.3-1.8c-0.7-1.5-3-8.3,1.3-21.9c1.5-4.8,3.8-10.3,7.3-16.8c1.8-3.3,3.8-6.7,6.2-10.5c4.9-7.6,4.8-14.3,4.6-21.4
		c-0.1-7.3-0.3-15.5,4.8-26.7c3.4-7.4,10.4-13,18.4-14.6C742,799.9,747.1,800.8,751.1,803.3z M687.3,846c0.2-0.2,0.3-0.3,0.5-0.5
		c1.5-1.4,3-2.5,4.3-3.5c0,0,0,0,0,0c0.8,2.6,2,5.9,3.9,9.8c0.2,0.5,0.7,0.7,1.2,0.7c0.2,0,0.4,0,0.6-0.1c0.6-0.3,0.9-1.1,0.6-1.7
		c-1.6-3.3-2.6-6.1-3.4-8.4c-0.2-0.6-0.4-1.1-0.5-1.6c-0.2-0.6-0.3-1.1-0.4-1.6c-0.4-1.6-0.6-2.6-0.7-3.2
		c0-27.6,17.2-42.5,33.3-42.5c6.2,0,12.1,1.6,17.5,4.6c-2.5-0.3-5.2-0.2-7.9,0.3c-8.9,1.8-16.5,7.8-20.2,16.1
		c-5.3,11.7-5.2,20.3-5,27.8c0.1,7,0.2,13-4.2,20c-0.7,1.1-1.4,2.2-2.1,3.3c-0.6,1.1-1.3,2.1-1.9,3.1c-0.9,1.5-1.7,3-2.4,4.4
		c-3.5,6.5-5.9,12.2-7.4,17c-0.4,1.2-0.7,2.3-1,3.4c-0.2,0.8-0.4,1.7-0.6,2.5c-1.8,8.2-1,13.4-0.3,16.1c-4.8-2.4-11-6.5-15-13.2
		c-0.4-0.6-0.7-1.2-1-1.8c-0.3-0.6-0.6-1.3-0.9-1.9c-1.3-3.1-2.1-6.7-2.1-10.7c0-2.6,0.2-5,0.4-7.4c1.3-11.5,5.3-19.9,9.9-25.7
		C684.1,849.3,685.7,847.5,687.3,846z M662.2,862.6c2.3-7.1,7.3-13.5,13.6-17.5c0.1-0.1,0.2-0.1,0.4-0.2c0.9-0.5,1.7-1,2.6-1.4
		c1,0.3,3.7,1.3,4.8,2.7c-1,1-2,2.1-2.9,3.4c-4.9,6.2-9.3,15.2-10.6,27.6c-0.2,2.4-0.4,4.8-0.4,7.4c0,2,0.2,4.8,1.1,8
		c-2.5-2.2-4.7-5.1-6.4-8.3c-1.8-3.5-2.9-7.2-3.3-10.9C660.7,869.7,661.1,866.1,662.2,862.6z M713.5,465.3
		c-0.4-4.1,0.9-8.1,3.5-11.2c2.6-3.1,6.3-5.1,10.4-5.5c0.5,0,1-0.1,1.4-0.1c3.3,0,6.5,1.1,9.2,3.1c-12.3,7.8-18.7,15-21.7,21.1
		C714.8,470.7,713.8,468.1,713.5,465.3z M469.9,514.3c22-34,55.9-57.3,95.4-65.8c10.7-2.3,21.4-3.4,32-3.4c28.9,0,57.2,8.3,82,24.3
		c0.6,0.4,1.2,0.8,1.8,1.2c-32.8,5.2-34.7,32.5-34.8,32.8c0,0.7,0.5,1.3,1.2,1.4c0,0,0,0,0.1,0c0.7,0,1.2-0.5,1.3-1.2
		c0-0.3,1.9-26.8,34.9-30.8c0.1,0,0.2-0.1,0.4-0.1c4.6,3.2,9,6.6,13.1,10.3c-3.8,0.7-7.7,1.7-11.7,3.4c-19.5,8-32.2,22.4-37.9,33.8
		c-4.7-0.3-10.2-0.3-15.7,0.5c-6.8,1-12.3,3.4-16.3,6c-1.8-1.6-3.9-2.8-6.3-3.7c-10.9-3.8-33.3-8.7-60.8,0.8
		c-24.1,8.3-35.8,25.6-42.5,37.8c-0.3,0.6-0.6,1.3-0.9,1.9l-56.7,3.8C452.1,548.7,459.3,530.7,469.9,514.3z M695.2,588.4
		c-0.4,0.7-1.3,1-2,0.6c-0.7-0.4-1-1.3-0.6-2c0.4-0.7,1.3-1,2-0.6C695.3,586.8,695.6,587.7,695.2,588.4z M621.2,535.2
		c3-1.9,7.1-3.7,12.2-4.4c4.1-0.6,8.1-0.7,11.8-0.5c0,2.1,0.4,4.2,1,6.2c2.3,6.7,6.5,17.7,12.8,28.7c-0.1,0.4,0,0.8,0.2,1.1
		c0,0.1,0.1,0.1,0.1,0.2c0.2,0.2,0.5,0.5,0.8,0.7c1.1,0.9,2.2,2,3.4,3.1c1.4,1.3,3,2.8,4.6,4.3c4.2,4.1,8.9,8.8,13.5,13.7
		c1.1,1.2,2.2,2.4,3.3,3.7c0.8,0.9,1.5,1.7,2.3,2.6c10.4,12.2,18.3,24.4,14.6,30.2c-1.7,2.6-4.1,4.2-7.5,4.6
		c-20.6,2.9-64.4-34.6-67.6-37.3c-0.1-0.1-0.2-0.1-0.2-0.2c-0.2-0.2-0.5-0.3-0.8-0.3c0.4-2,0.8-4.1,1-6.3
		C629.3,565.6,624.4,545.6,621.2,535.2z M689.3,584.6c-0.2,0.4-0.7,0.7-1.1,0.7c-0.2,0-0.4-0.1-0.6-0.2c-16.1-9-25.8-43.1-28.3-52.9
		c-0.4-1.4-0.6-2.4-0.6-2.6c-0.2-0.7,0.3-1.4,1-1.5c0.5-0.1,0.9,0.1,1.2,0.4c0.2,0.2,0.3,0.3,0.3,0.6c0.1,0.4,10.2,44.1,27.7,53.8
		C689.4,583.2,689.7,584,689.3,584.6z M556.2,623.4c-0.4,0.7-1.3,1-2,0.6c-0.7-0.4-1-1.3-0.6-2c0.4-0.7,1.3-1,2-0.6
		C556.3,621.8,556.5,622.7,556.2,623.4z M550.3,619.6c-0.2,0.4-0.7,0.7-1.1,0.7c-0.2,0-0.4-0.1-0.6-0.2c-15.4-8.6-24.9-40-27.9-51.4
		c-0.5-1.9-0.8-3.2-1-3.8c0-0.1-0.1-0.2-0.1-0.3c-0.2-0.7,0.3-1.4,1-1.5c0.7-0.2,1.4,0.3,1.5,1c0.1,0.4,10.2,44.1,27.7,53.8
		C550.4,618.2,550.6,619,550.3,619.6z M669.7,762.6c-0.5,2.9-1.3,5.7-2.3,8.4c-1.6,3.4-3.5,6.6-5.7,9.6c-3.2,3.9-6.8,7.5-10.8,10.7
		c-3,2.2-6.1,4.2-9.3,6c-3.9-7.1-7.4-14.3-10.6-21.7c-3.6-8.8-6.8-17.9-9.4-27c2.6-0.4,5.2-0.9,7.7-1.4c11.2-2.4,21.9-6,32-10.6
		c0.1,0.1,0.2,0.2,0.3,0.3c2.3,3.1,4.3,6.4,5.9,9.9c1,2.7,1.8,5.4,2.3,8.2C669.9,757.5,669.9,760.1,669.7,762.6z M747.3,615.5
		c-1.2,9.2-3.2,18.2-5.9,26.8c-9.7,30.5-29,57.4-54.9,76.5c-8.3,6.1-17.3,11.4-26.9,15.7c-9.7,4.4-20,7.8-30.8,10.1
		c-2.6,0.6-5.3,1-7.9,1.5c-10.5,1.7-21,2.2-31.4,1.7c-26.3-1.3-52-9.4-74.7-24.1c-20.2-13-36.5-30.3-48.3-50.4c5,0,10.1,0.4,15.1,1
		c1.5,0.2,3,0.5,4.4,0.7c4.9,0.9,9.5-3,9.1-8c-0.7-8.8-3.8-19.4-9.9-21.8c-1.4-0.6-2.3-1.5-3.6-1.7c-9.4-1.2-19.1-1.4-28.6-0.2
		c-1.6-4.9-2.9-9.8-4-14.9c-3.6-16.9-4.3-33.9-2.2-50.5l57.6-3.9c0.2,0.9,0.5,1.9,0.8,2.8c9.9,24.5,30.4,61.4,64.5,61.4
		c5.9,0,12.2-1.1,18.9-3.6c19.6-7.2,32-20.7,36.7-40.3c4.5,3.9,44.4,38,66.8,37.9c0.9,0,1.8-0.1,2.7-0.2c4.1-0.6,7.2-2.5,9.3-5.8
		c1-1.6,1.4-3.5,1.2-5.7c-0.2-2.9-1.4-6.3-3.6-10.3c-2.2-4-5.3-8.6-9.5-13.6c3.3,1,6.7,1.5,10.1,1.5c5.3,0,10.7-1.2,16.1-3.6
		c12.7-5.5,21.9-14.2,27.5-25.8C748.9,584.5,749.3,600.2,747.3,615.5z M783.4,603.6c-7.2,8.9-14.8,13.4-23.3,13.9
		c-3.4,0.2-6.9-0.3-10.2-1.3c2.2-16.8,1.6-34.2-2.1-51.7c1.9-4.8,3.2-10,4-15.7c0-0.3,0.1-0.7,0.1-1c0.9,3.4,2.4,6,3.8,7.8
		c4.1,4.8,12.4,7.6,22,7.6c4.1,0,8.5-0.6,12.9-1.7C794.2,579,791.9,593.1,783.4,603.6z M814.2,544.2c-2.8,3.1-6.1,6-9.9,8.5
		c-4.6,3-9.5,5.1-14.4,6.3c-13.9,3.6-27.5,0.5-32.3-5.1c-2.6-3-5.1-9.4-3.7-17.4c0.1-0.8,0.3-1.6,0.5-2.5c0.8,0.5,1.7,0.9,2.6,1.3
		c0.8,0.9,3.7,4.1,8.6,6.2c2.3,1,5.3,1.8,8.8,1.8c2.9,0,6.1-0.5,9.6-1.9c1.8-0.7,3.7-1.6,5.7-2.8c0.6-0.4,0.8-1.2,0.4-1.8
		c-0.4-0.6-1.2-0.8-1.8-0.4c-1.8,1.1-3.6,2-5.3,2.7c-10,3.9-17.2,0.4-21.1-2.5c0.4,0,0.7,0,1.1,0c5.6,0,11-2.9,15.7-6.7
		c9-7.2,15.5-17.8,16.1-18.8c0,0,0,0,0,0c0.4-0.6,0.2-1.4-0.4-1.8c-0.6-0.4-1.4-0.2-1.8,0.4c-0.1,0.2-6.5,10.7-15.1,17.8
		c-5.8,4.9-12.7,8.1-19.3,5.6c-1.1-0.4-2.2-1-3.1-1.6c-0.4-0.2-0.7-0.5-1.1-0.7c-0.4-0.3-0.7-0.5-1.1-0.8c-0.3-0.2-0.5-0.4-0.8-0.7
		c-0.4-6.5-1.3-12.7-2.5-18.2c2.6-3.7,5.9-7.9,8.9-10.2c0.6-0.4,0.7-1.2,0.2-1.8c-0.4-0.6-1.2-0.7-1.8-0.2c-2.7,2.1-5.6,5.5-8,8.8
		c-0.4-2-0.9-3.9-1.4-5.7c-1.5-5.6-5.2-10.1-10-12.1l-1.5-0.6c-0.1-0.1-0.3-0.1-0.4-0.2c2.3-3.2,5.1-6.5,7.6-8.4
		c0.6-0.4,0.7-1.2,0.2-1.8c-0.4-0.6-1.2-0.7-1.8-0.2c-2.9,2.2-6,6-8.5,9.5c-4.5-1.8-10.2-3.9-16.8-5c0-1.6,0.1-3.4,0.7-5.5
		c0.1-0.4,0.3-0.9,0.4-1.3c0.2-0.4,0.3-0.8,0.5-1.3c2.6-6,8.8-13.3,21.8-21.4c0.4-0.2,0.7-0.5,1.1-0.7c0.4-0.2,0.7-0.4,1.1-0.7
		c0.1,0,0.1-0.1,0.2-0.1c16.4-9.7,30.8-10.1,42.6-1.2c14.5,11,21.7,33,23.4,50.3c0,0.4,0.1,0.9,0.1,1.3c0,0.5,0.1,0.9,0.1,1.3
		c0.4,6.2,0.1,11.7-0.9,15.6c0,0.1-0.1,0.3-0.1,0.4c-0.2,0.7,0.2,1.4,0.9,1.6c0.7,0.2,1.4-0.2,1.6-0.9c0.6-2.3,1-5,1.2-8
		c1.2-1.9,3.2-4.6,5.3-5.4c1.9,1.3,3.5,2.9,4.7,4.7C827.2,520.7,823.9,533.6,814.2,544.2z M709.4,641.2c-0.4,0.9-9.9,21.8-47.7,33
		c-7,2-14.3,2.9-21.4,2.9c-21.7,0-42.7-7.6-52.9-11.8c-3,0-5.7,1.4-7.5,2.6c-1.9,3.6-4.3,6.7-6.7,9.2c-0.2,0.3-0.6,0.4-0.9,0.4
		c-0.3,0-0.6-0.1-0.9-0.4c-0.5-0.5-0.5-1.3,0-1.8c9.6-10,11.9-20.8,6.9-32c-0.4-0.8-0.5-1.2-0.4-1.8c0.2-0.7,0.9-1.1,1.6-0.8
		c0.5,0.1,0.8,0.6,0.9,1c0,0.1,0.1,0.3,0.2,0.5c3,6.6,3.3,12.7,2.1,18c4.6,2.2,45,21.2,78.3,11.4c19.1-5.6,30.7-13.9,37-19.8
		c6.8-6.4,9.1-11.6,9.2-11.7c0.3-0.6,1-0.9,1.7-0.7C709.3,639.8,709.6,640.5,709.4,641.2z M546.1,500.8c-0.1-0.7,0.3-1.4,1-1.5
		c40.2-8.2,52.9,10,53.5,10.8c0.4,0.6,0.2,1.4-0.4,1.8c-0.2,0.1-0.5,0.2-0.7,0.2c-0.4,0-0.8-0.2-1.1-0.6c-0.1-0.1-3.1-4.5-10.8-7.8
		c-7.2-3.1-19.9-6-40-1.9C546.9,501.9,546.2,501.5,546.1,500.8z"/>
	<path class="st3" d="M821.3,511.8c5.8,8.8,2.5,21.8-7.1,32.4c-2.8,3.1-6.1,6-9.9,8.5c-4.6,3-9.5,5.1-14.4,6.3
		c-13.9,3.6-27.5,0.5-32.3-5.1c-2.6-3-5.1-9.4-3.7-17.4c0.1-0.8,0.3-1.6,0.5-2.5c0.8,0.5,1.7,0.9,2.6,1.3c0.8,0.9,3.7,4.1,8.6,6.2
		c2.3,1,5.3,1.8,8.8,1.8c2.9,0,6.1-0.5,9.6-1.9c1.8-0.7,3.7-1.6,5.7-2.8c0.6-0.4,0.8-1.2,0.4-1.8c-0.4-0.6-1.2-0.8-1.8-0.4
		c-1.8,1.1-3.6,2-5.3,2.7c-10,3.9-17.2,0.4-21.1-2.5c0.4,0,0.7,0,1.1,0c5.6,0,11-2.9,15.7-6.7c9-7.2,15.5-17.8,16.1-18.8
		c0,0,0,0,0,0c0.4-0.6,0.2-1.4-0.4-1.8c-0.6-0.4-1.4-0.2-1.8,0.4c-0.1,0.2-6.5,10.7-15.1,17.8c-5.8,4.9-12.7,8.1-19.3,5.6
		c-1.1-0.4-2.2-1-3.1-1.6c-0.4-0.2-0.7-0.5-1.1-0.7c-0.4-0.3-0.7-0.5-1.1-0.8c-0.3-0.2-0.5-0.4-0.8-0.7c-0.4-6.5-1.3-12.7-2.5-18.2
		c2.6-3.7,5.9-7.9,8.9-10.2c0.6-0.4,0.7-1.2,0.2-1.8c-0.4-0.6-1.2-0.7-1.8-0.2c-2.7,2.1-5.6,5.5-8,8.8c-0.4-2-0.9-3.9-1.4-5.7
		c-1.5-5.6-5.2-10.1-10-12.1l-1.5-0.6c-0.1-0.1-0.3-0.1-0.4-0.2c2.3-3.2,5.1-6.5,7.6-8.4c0.6-0.4,0.7-1.2,0.2-1.8
		c-0.4-0.6-1.2-0.7-1.8-0.2c-2.9,2.2-6,6-8.5,9.5c-4.5-1.8-10.2-3.9-16.8-5c0-1.6,0.1-3.4,0.7-5.5c0.1-0.4,0.3-0.9,0.4-1.3
		c0.2-0.4,0.3-0.8,0.5-1.3c2.6-6,8.8-13.3,21.8-21.4c0.4-0.2,0.7-0.5,1.1-0.7c0.4-0.2,0.7-0.4,1.1-0.7c0.1,0,0.1-0.1,0.2-0.1
		c16.4-9.7,30.8-10.1,42.6-1.2c14.5,11,21.7,33,23.4,50.3c0,0.4,0.1,0.9,0.1,1.3c0,0.5,0.1,0.9,0.1,1.3c0.4,6.2,0.1,11.7-0.9,15.6
		c0,0.1-0.1,0.3-0.1,0.4c-0.2,0.7,0.2,1.4,0.9,1.6c0.7,0.2,1.4-0.2,1.6-0.9c0.6-2.3,1-5,1.2-8c1.2-1.9,3.2-4.6,5.3-5.4
		C818.5,508.4,820.1,510,821.3,511.8z M716.3,472.8c3-6.1,9.4-13.3,21.7-21.1c-2.7-2-5.9-3.1-9.2-3.1c-0.5,0-1,0-1.4,0.1
		c-4.1,0.4-7.8,2.3-10.4,5.5c-2.6,3.1-3.9,7.1-3.5,11.2C713.8,468.1,714.8,470.7,716.3,472.8z M595.3,901.2c-1.6,0-3.1,0-4.7,0
		c-1.7,0-3.4,0-5.1,0c-17.6,0-34-6-41.7-15.2c-4-4.7-5.6-10.2-4.6-15.8c1.5-8.7-0.7-18.8-2.7-27.7c-0.9-3.9-1.7-7.7-2.2-11.2
		l-2.3-0.1c-0.7,6.2-0.2,12.9,2.2,19.7c2.2,6.3,1.8,12.6,1.5,18.6c-0.3,5.7-0.7,11.1,1.2,15.9c7.6,20.4,37,23.4,53.8,23.4
		c15,0,24.9-1.2,31.3-7.6c2.2-2.2,3.2-5.3,3.5-8.2c-0.3,0.4-0.6,0.8-1,1.1C617.9,900.6,607.5,901.2,595.3,901.2z M583.1,850.4
		c0.6-0.3,1.4-0.6,2.4-1c1.1-0.4,2.4-0.8,3.8-1.3c0.4-0.1,0.9-0.3,1.4-0.4c0.4-0.1,0.9-0.3,1.4-0.4c0.5-0.1,0.9-0.3,1.4-0.4
		c2.2-0.7,4.4-1.3,6.6-2l0.1,0l0.5-0.2l0.2,0c1.6-1.7,3-3.6,4.2-5.7c0.2-0.4,0.5-0.8,0.7-1.2c-0.1,0-0.2,0-0.2,0c-0.5,0-0.9,0-1.4,0
		c-0.4,0-0.9,0-1.4,0c-4.3-0.1-8.6-0.5-12.8-1.2c0.7,0.4,1.1,0.5,1.2,0.6c0.6,0.3,1,1,0.7,1.7c-0.2,0.5-0.7,0.8-1.2,0.8
		c-0.2,0-0.3,0-0.5-0.1c-0.1-0.1-13.4-5.7-13.1-19.3c0.4-18.2,12.7-19.9,12.9-19.9c0.7-0.1,1.3,0.4,1.4,1.1c0.1,0.7-0.4,1.3-1.1,1.4
		c-0.3,0-6.3,1-9.2,8.9c1.2-1.4,2.6-2.6,4.1-3.5c3.7-2.2,7.5-2.2,11.6-1.6c1,0.1,2,0.2,3,0.3c0.5,0,1.1,0.1,1.6,0.1c0.5,0,1,0,1.5,0
		c1.4,0,2.7,0.1,4.1,0.1c-3.8-9.4-11.3-15.8-19.9-15.8c-0.6,0-1.1,0.1-1.6,0.1c-0.8,0.1-1.6,0.2-2.4,0.4c-0.7,0.2-1.4,0.4-2.1,0.6
		c-8.4,3.1-14.8,12.5-16.2,24c-0.1,0.6-0.1,1.1-0.2,1.7c0,0.6-0.1,1.2-0.1,1.8c0,0.4,0,0.8,0,1.2C564.3,835.5,572.4,848,583.1,850.4
		z M678.8,843.4c-0.9,0.4-1.8,0.9-2.6,1.4c-0.1,0.1-0.2,0.1-0.4,0.2c-6.3,4-11.3,10.4-13.6,17.5c-1.1,3.5-1.5,7.1-1.2,10.8
		c0.4,3.7,1.4,7.4,3.3,10.9c1.7,3.2,3.9,6.1,6.4,8.3c-0.8-3.2-1.1-6.1-1.1-8c0-2.6,0.2-5,0.4-7.4c1.3-12.4,5.7-21.3,10.6-27.6
		c1-1.2,1.9-2.3,2.9-3.4C682.5,844.7,679.9,843.7,678.8,843.4z M711.9,869.1c1.2-2.2,2.3-4.4,3.4-6.5c4.4-8.5,4.2-14.8,4.1-21.5
		c-0.2-6.5-0.3-13.2,3.1-22.5c3-8,9.2-13.7,17.2-15.5c3.9-0.9,7.8-0.8,11.4,0.3c0,0,0,0,0,0c0,0-0.1,0-0.1-0.1
		c-4-2.5-9-3.4-14.4-2.3c-8,1.6-15,7.2-18.4,14.6c-5.1,11.2-4.9,19.4-4.8,26.7c0.1,7.1,0.3,13.8-4.6,21.4c-2.4,3.7-4.4,7.2-6.2,10.5
		c-3.5,6.5-5.8,12.1-7.3,16.8c-4.3,13.5-2,20.4-1.3,21.9c1,0.5,2.6,1.1,4.3,1.8c0-0.1-0.1-0.1-0.1-0.2
		C692.8,905.5,703,886.2,711.9,869.1z M758.7,811c-0.1-0.2-0.3-0.3-0.5-0.5c-0.2-0.2-0.4-0.4-0.5-0.6c0,0,0,0,0,0
		c-0.4-0.3-0.8-0.7-1.1-1c-0.2-0.2-0.4-0.3-0.6-0.4c-0.5-0.4-1.1-0.7-1.6-1c-2.8-1.6-6.1-2.5-9.4-2.5c-1.5,0-3.1,0.2-4.6,0.5
		c-7.1,1.7-12.7,6.8-15.3,13.9c-3.3,8.8-3.1,15.3-3,21.5c0.2,7,0.3,13.7-4.3,22.8c-1.1,2.1-2.2,4.3-3.4,6.5
		c-8.2,15.6-18.4,35.1-13.8,42.8c1.4,2.4,4.3,3.6,8.8,3.6h0.5c0.8,0,1.6,0,2.3,0c1.8,0,3.4-0.1,4.9-0.3c1-0.1,1.8-0.2,2.6-0.3
		c0.3,0,0.6-0.1,0.9-0.2c3.4-0.6,5.1-1.6,5.9-2.4c0.9-0.9,2-2.1,3.1-3.7c0.6-0.9,1.3-1.9,2-3.1c4-6.5,8.8-17.3,13.8-35.3
		c2-7.1,6.2-15.2,10-22.3c2.3-4.3,4.4-8.4,5.7-11.5c3-7.6,2.7-17.2-0.2-23.5C760.1,813,759.4,812,758.7,811z M619.1,874
		c0,0.6-0.1,1.2-0.2,1.7c-0.1,0.6-0.2,1.2-0.3,1.6c-0.1,0.5-0.2,0.8-0.2,0.8c-0.2,0.7,0.2,1.4,0.9,1.6c0.1,0,0.2,0.1,0.4,0.1
		c0.4,0,0.7-0.2,0.9-0.4c0.1-0.1,0.2-0.3,0.3-0.5c0,0,0.1-0.3,0.2-0.9c0.1-0.4,0.2-0.9,0.3-1.6c0.6-4.6,0.7-14.7-9.2-21.4
		c-0.6-0.4-1.4-0.2-1.8,0.3c-0.4,0.6-0.2,1.4,0.4,1.8C618.3,862.3,619.3,869.5,619.1,874z M613.8,888.6c0,0.8,0.7,1.5,1.5,1.5
		c0.8,0,1.5-0.7,1.5-1.5c0-0.8-0.7-1.5-1.5-1.5C614.4,887.1,613.8,887.7,613.8,888.6z M530.8,787.6c-2.6-2.6-4.6-5.5-5.9-8.7
		c-2.1-4.9-12.6-27-37-30.9c-2.1,0.7-5.2,2.6-7.4,4c-2.2,6.4-7.2,14.2-17.8,22.4c-0.6,0.4-1.4,0.3-1.8-0.2c-0.1-0.1-0.1-0.2-0.1-0.3
		c-0.2-0.5-0.1-1.1,0.4-1.5c12.5-9.6,16.8-18.5,17.9-25c0.1-0.4,0.1-0.9,0.2-1.3c0.1-0.4,0.1-0.9,0.1-1.3c0-0.2,0-0.5,0-0.7
		c0.2-6.2-2.2-10.6-4.3-12.5c-4.2-3.8-14-3.8-24.3,0.3c1.7,1.7,3.5,3.3,5.3,4.9c3.1,2.7,4.3,7,4.5,10.9c0.2,4.1-1.8,8-4.5,10.9
		c-2.6,2.8-7.1,4.5-10.9,4.5c-4.2,0-7.8-1.8-10.9-4.5c-2.8-2.4-5.5-4.9-8.1-7.6c-7.2,9.9-9.3,20.3-4.3,26.2
		c3.5,4.2,10.1,5.4,17.9,3.7c1.7-0.4,3.6-1,5.4-1.7c0.6-0.2,1.4,0.1,1.6,0.7c0,0,0,0,0,0c0.3,0.7-0.1,1.4-0.7,1.7
		c-2.9,1.1-5.6,1.8-8.2,2.2c0.1,1.5,2.3,54.2,21.7,60.6c7.2,2.4,12.9,2.4,16.9,0.1c2.9-1.6,4.2-4.1,4.8-5.4c-3-1.5-12-6.7-12.4-15.1
		c0-0.7,0.5-1.3,1.2-1.4c0.7-0.1,1.3,0.5,1.4,1.2c0.4,7.9,10.6,12.7,11.8,13.3c0,0,0.1,0,0.1,0c0.6,0.2,14.7,4.4,21.9-7.7
		c-3.6-1.1-12-4.3-14.4-11.6c-0.2-0.7,0.2-1.4,0.8-1.6c0.7-0.2,1.4,0.2,1.6,0.8c2.4,7.5,13,10.1,14,10.3c1.1,0,9.7-0.2,15.6-6.3
		c4-4.1,6.1-10.2,6-17.8c-3.8,2.6-7.4,4-10.6,4c2.2,2.2,5,5.6,5.6,9.5c0.1,0.7-0.4,1.4-1.1,1.5c-0.1,0-0.1,0-0.2,0
		c-0.6,0-1.2-0.4-1.3-1.1c-0.9-5.6-7.5-10.3-7.5-10.4c-0.2-0.1-0.3-0.3-0.4-0.6c-6.8-3.2-9.1-12.8-9.6-15.6l-4.8-1.8
		c-0.7-0.2-1-1-0.8-1.6s1-1,1.6-0.8l5.5,2c0.4,0.2,0.8,0.6,0.8,1c0,0,0.1,0.5,0.2,1.2c0.6,3,2.9,11.1,8.4,13.4
		c3.7,1.5,8.3,0.2,13.7-3.8c0.2-0.2,0.4-0.3,0.6-0.4c0,0,0.1,0,0.1,0c0.1-0.1,3.7-3.4,3.8-7.2C533,790.7,532.3,789.1,530.8,787.6z
		 M697.4,618.8c0.1,0,0.3,0,0.4-0.1c0.7-0.2,1-1,0.8-1.6c-2.2-6.2-11.6-18-20.7-28.5c-5.2-6-10.2-11.5-13.8-15.3
		c-2.6-2.8-4.4-4.7-4.7-5c-0.5-0.5-1.3-0.5-1.8,0c-0.5,0.5-0.5,1.3,0,1.8c0.3,0.4,34.3,35.9,38.6,47.9
		C696.4,618.5,696.9,618.8,697.4,618.8z M652.9,563c-0.7-0.4-1.6-0.1-2,0.6c-0.4,0.7-0.1,1.6,0.6,2c0.7,0.4,1.6,0.1,2-0.6
		C653.9,564.2,653.6,563.4,652.9,563z M519.6,564.9c0.1,0.6,0.5,1.9,1,3.8c3,11.4,12.5,42.8,27.9,51.4c0.2,0.1,0.4,0.2,0.6,0.2
		c0.5,0,0.9-0.2,1.1-0.7c0.3-0.6,0.1-1.4-0.5-1.7c-17.5-9.7-27.6-53.3-27.7-53.8c-0.2-0.7-0.9-1.1-1.5-1c-0.7,0.2-1.1,0.8-1,1.5
		C519.6,564.7,519.6,564.8,519.6,564.9z M554.2,624.1c0.7,0.4,1.6,0.1,2-0.6c0.4-0.7,0.1-1.6-0.6-2c-0.7-0.4-1.6-0.1-2,0.6
		C553.2,622.8,553.5,623.7,554.2,624.1z M659.3,532.2c2.5,9.8,12.2,43.9,28.3,52.9c0.2,0.1,0.4,0.2,0.6,0.2c0.5,0,0.9-0.2,1.1-0.7
		c0.3-0.6,0.1-1.4-0.5-1.7c-17.5-9.7-27.6-53.3-27.7-53.8c-0.1-0.2-0.2-0.4-0.3-0.6c-0.3-0.3-0.8-0.5-1.2-0.4
		c-0.7,0.2-1.1,0.8-1,1.5C658.7,529.9,658.9,530.8,659.3,532.2z M693.3,589.1c0.7,0.4,1.6,0.1,2-0.6c0.4-0.7,0.1-1.6-0.6-2
		c-0.7-0.4-1.6-0.1-2,0.6C692.3,587.8,692.5,588.7,693.3,589.1z"/>
	<rect x="276" y="489.6" class="st2" width="45.1" height="44.3"/>
	<path class="st8" d="M294,489.9c0.6,2.6,1.4,5,2.4,7.3c1.1,2.5,2.4,4.9,4.1,7.1c2.8,3.6,6.5,5.9,10.8,7.3c0.2,0,0.3,0.1,0.5,0.1
		c-0.1,0.2-0.2,0.1-0.3,0.2c-5.9,1.7-10.3,5.3-13.2,10.7c-1.8,3.3-3.2,6.8-4.1,10.5c0,0.1-0.1,0.3-0.1,0.5c-0.1-0.4-0.2-0.8-0.3-1.2
		c-0.1-0.4-0.2-0.7-0.3-1.1c-1.2-4.1-2.9-7.8-5.3-11.3c-2.9-4.1-6.8-6.8-11.5-8.2c-0.1,0-0.3-0.1-0.5-0.2c0.5-0.2,0.9-0.3,1.3-0.4
		c5.4-1.8,9.5-5.3,12.3-10.3c1.9-3.3,3.3-6.8,4.2-10.5C293.9,490.3,293.9,490.1,294,489.9z M320.6,511.8c-0.5,0.1-1-0.2-1.6,0
		C319.6,511.9,320.1,511.8,320.6,511.8C320.6,511.8,320.6,511.8,320.6,511.8z"/>
	<rect x="268.1" y="481.5" class="st2" width="52.1" height="60.2"/>
	<path class="st9" d="M294,542c-0.3-4.4-1-8.6-2.5-12.7c-1.1-3.1-2.6-6-4.5-8.7c-2.9-4.2-7-6.8-11.9-8c-2.1-0.6-4.3-0.8-6.5-0.9
		c-0.2,0-0.3,0-0.4,0c2.5-0.1,4.9-0.4,7.3-1.1c5.5-1.5,9.7-4.7,12.7-9.5c2.7-4.4,4.4-9.1,5.2-14.2c0.3-1.7,0.5-3.5,0.6-5.3
		c0.1,0.8,0.1,1.6,0.2,2.3c0.6,5.8,2.1,11.4,5,16.5c1.8,3.1,4,5.8,7.1,7.8c2.7,1.7,5.7,2.7,8.8,3.2c1.2,0.2,2.5,0.3,3.7,0.5
		c-1.4,0.1-2.9,0.3-4.3,0.5c-4.9,0.9-9.3,2.9-12.6,6.7c-2.4,2.8-4,5.9-5.3,9.3c-1.4,3.7-2.2,7.5-2.5,11.4
		C294.1,540.5,294,541.2,294,542z M294,489.9c-0.1,0.3-0.1,0.4-0.1,0.5c-0.9,3.7-2.3,7.2-4.2,10.5c-2.9,4.9-6.9,8.4-12.3,10.3
		c-0.4,0.1-0.8,0.3-1.3,0.4c0.2,0.1,0.4,0.1,0.5,0.2c4.8,1.5,8.7,4.1,11.5,8.2c2.4,3.5,4.2,7.3,5.3,11.3c0.1,0.4,0.2,0.8,0.3,1.1
		c0.1,0.4,0.2,0.7,0.3,1.2c0.1-0.2,0.1-0.4,0.1-0.5c0.9-3.7,2.2-7.2,4.1-10.5c3-5.4,7.3-9,13.2-10.7c0.1,0,0.2,0,0.3-0.2
		c-0.2,0-0.3-0.1-0.5-0.1c-4.3-1.3-8-3.6-10.8-7.3c-1.7-2.2-3-4.6-4.1-7.1C295.3,494.9,294.6,492.5,294,489.9z"/>
	<g>
		<g transform="translate(590.602803, 168.653582)">
		</g>
	</g>
	<g>
		<g transform="translate(1115.754573, 168.653582)">
		</g>
	</g>
	<path class="st8" d="M1631.3,459.6c0.6,2.6,1.4,5,2.4,7.3c1.1,2.5,2.4,4.9,4.1,7.1c2.8,3.6,6.5,5.9,10.8,7.3c0.2,0,0.3,0.1,0.5,0.1
		c-0.1,0.2-0.2,0.1-0.3,0.2c-5.9,1.7-10.3,5.3-13.2,10.7c-1.8,3.3-3.2,6.8-4.1,10.5c0,0.1-0.1,0.3-0.1,0.5c-0.1-0.4-0.2-0.8-0.3-1.2
		c-0.1-0.4-0.2-0.7-0.3-1.1c-1.2-4.1-2.9-7.8-5.3-11.3c-2.9-4.1-6.8-6.8-11.5-8.2c-0.1,0-0.3-0.1-0.5-0.2c0.5-0.2,0.9-0.3,1.3-0.4
		c5.4-1.8,9.5-5.3,12.3-10.3c1.9-3.3,3.3-6.8,4.2-10.5C1631.2,460,1631.3,459.9,1631.3,459.6z M1658,481.5c-0.5,0.1-1-0.2-1.6,0
		C1657,481.6,1657.5,481.6,1658,481.5C1658,481.5,1658,481.5,1658,481.5z"/>
	<rect x="1605.5" y="451.3" class="st2" width="51.4" height="60.2"/>
	<path class="st9" d="M1631.4,511.7c-0.3-4.4-1-8.6-2.5-12.7c-1.1-3.1-2.6-6-4.5-8.7c-2.9-4.2-7-6.8-11.9-8
		c-2.1-0.6-4.3-0.8-6.5-0.9c-0.2,0-0.3,0-0.5,0c2.5-0.1,4.9-0.4,7.3-1.1c5.5-1.5,9.7-4.7,12.7-9.5c2.7-4.4,4.4-9.1,5.2-14.2
		c0.3-1.8,0.4-3.5,0.6-5.3c0.1,0.8,0.1,1.6,0.2,2.3c0.6,5.8,2.1,11.4,5,16.5c1.8,3.1,4,5.8,7.1,7.7c2.7,1.7,5.7,2.7,8.8,3.2
		c1.2,0.2,2.5,0.3,3.7,0.5c-1.4,0.1-2.9,0.3-4.3,0.5c-4.9,0.9-9.3,2.9-12.6,6.7c-2.4,2.8-4,5.9-5.3,9.3c-1.4,3.7-2.2,7.5-2.5,11.4
		C1631.5,510.2,1631.4,511,1631.4,511.7z M1631.3,459.6c-0.1,0.3-0.1,0.4-0.1,0.5c-0.9,3.7-2.3,7.2-4.2,10.5
		c-2.9,4.9-6.9,8.4-12.3,10.3c-0.4,0.1-0.8,0.3-1.3,0.4c0.2,0.1,0.4,0.1,0.5,0.2c4.8,1.5,8.7,4.1,11.5,8.2c2.4,3.5,4.2,7.3,5.3,11.3
		c0.1,0.4,0.2,0.7,0.3,1.1c0.1,0.4,0.2,0.7,0.3,1.2c0.1-0.2,0.1-0.4,0.1-0.5c0.9-3.7,2.2-7.2,4.1-10.5c3-5.4,7.3-9,13.2-10.7
		c0.1,0,0.2,0,0.3-0.2c-0.2,0-0.3-0.1-0.5-0.1c-4.3-1.3-8-3.6-10.8-7.3c-1.7-2.2-3-4.6-4.1-7.1
		C1632.7,464.6,1631.9,462.2,1631.3,459.6z"/>
	<rect x="1787" y="289" class="st2" width="55.8" height="55.4"/>
	<path class="st8" d="M1809.9,289.9c0.7,3.2,1.6,6.1,2.9,8.9c1.3,3.1,2.9,6,5,8.7c3.4,4.4,7.9,7.2,13.2,8.9c0.2,0,0.4,0.1,0.6,0.2
		c-0.1,0.2-0.2,0.2-0.3,0.2c-7.2,2.1-12.5,6.5-16.1,13c-2.2,4.1-3.9,8.3-5,12.8c0,0.2-0.1,0.3-0.2,0.6c-0.1-0.5-0.3-1-0.4-1.4
		c-0.1-0.4-0.2-0.9-0.4-1.4c-1.4-4.9-3.6-9.6-6.5-13.8c-3.5-5-8.2-8.2-14.1-10c-0.2,0-0.4-0.1-0.7-0.2c0.6-0.2,1.1-0.4,1.6-0.5
		c6.6-2.2,11.5-6.5,15-12.5c2.3-4,4.1-8.3,5.2-12.8C1809.8,290.4,1809.9,290.2,1809.9,289.9z M1842.5,316.6c-0.6,0.1-1.3-0.2-1.9,0
		C1841.2,316.7,1841.8,316.6,1842.5,316.6C1842.4,316.6,1842.5,316.6,1842.5,316.6z"/>
	<rect x="1778.5" y="279.7" class="st2" width="62.6" height="73.7"/>
	<path class="st9" d="M1810,353.4c-0.4-5.3-1.3-10.5-3-15.5c-1.3-3.8-3.1-7.3-5.4-10.6c-3.6-5.1-8.5-8.2-14.5-9.8
		c-2.6-0.7-5.2-1-7.9-1.1c-0.2,0-0.4,0-0.6,0c3-0.2,6-0.6,8.9-1.4c6.7-1.8,11.8-5.7,15.4-11.6c3.3-5.3,5.3-11.1,6.3-17.3
		c0.3-2.1,0.6-4.3,0.8-6.5c0.1,0.9,0.2,1.9,0.2,2.9c0.7,7.1,2.5,13.9,6.1,20.1c2.2,3.8,4.9,7.1,8.7,9.5c3.3,2,7,3.3,10.8,3.9
		c1.5,0.2,3,0.4,4.5,0.6c-1.8,0.1-3.5,0.3-5.2,0.6c-6,1.1-11.3,3.5-15.3,8.2c-2.9,3.4-4.9,7.2-6.4,11.4c-1.7,4.5-2.7,9.1-3.1,13.9
		C1810.1,351.6,1810.1,352.5,1810,353.4z M1809.9,289.9c-0.1,0.3-0.1,0.5-0.2,0.6c-1.1,4.5-2.8,8.8-5.2,12.8
		c-3.5,6-8.4,10.3-15,12.5c-0.5,0.2-1,0.3-1.6,0.5c0.3,0.1,0.5,0.1,0.7,0.2c5.8,1.8,10.6,5,14.1,10c3,4.2,5.1,8.8,6.5,13.8
		c0.1,0.4,0.2,0.9,0.4,1.4c0.1,0.4,0.2,0.9,0.4,1.4c0.1-0.3,0.1-0.4,0.2-0.6c1-4.5,2.7-8.8,5-12.8c3.6-6.6,8.9-10.9,16.1-13
		c0.1,0,0.3,0,0.3-0.2c-0.2-0.1-0.4-0.1-0.6-0.2c-5.3-1.6-9.8-4.4-13.2-8.9c-2-2.7-3.7-5.6-5-8.7
		C1811.6,296,1810.7,293.1,1809.9,289.9z"/>
	<rect x="50.4" y="210.1" class="st2" width="47.7" height="47"/>
	<path class="st8" d="M69.6,210.2c0.6,2.8,1.4,5.3,2.5,7.8c1.2,2.7,2.6,5.2,4.4,7.6c3,3.8,6.9,6.3,11.5,7.7c0.2,0,0.3,0.1,0.5,0.1
		c-0.1,0.2-0.2,0.1-0.3,0.2c-6.3,1.8-10.9,5.7-14.1,11.4c-1.9,3.5-3.4,7.3-4.3,11.2c0,0.2-0.1,0.3-0.1,0.5c-0.1-0.5-0.2-0.9-0.3-1.2
		c-0.1-0.4-0.2-0.8-0.3-1.2c-1.2-4.3-3.1-8.4-5.7-12c-3.1-4.4-7.2-7.2-12.3-8.7c-0.1,0-0.3-0.1-0.6-0.2c0.5-0.2,0.9-0.3,1.4-0.4
		c5.8-2,10.1-5.7,13.1-10.9c2-3.5,3.5-7.2,4.5-11.2C69.5,210.6,69.5,210.5,69.6,210.2z M98,233.5c-0.6,0.1-1.1-0.2-1.7,0
		C96.8,233.6,97.4,233.5,98,233.5C97.9,233.5,97.9,233.5,98,233.5z"/>
	<rect x="42.1" y="201.3" class="st2" width="55.4" height="64.3"/>
	<path class="st9" d="M69.6,265.6c-0.3-4.6-1.1-9.1-2.6-13.5c-1.2-3.3-2.7-6.4-4.7-9.2c-3.1-4.5-7.4-7.2-12.6-8.5
		c-2.3-0.6-4.6-0.9-6.9-1c-0.2,0-0.3,0-0.5,0c2.6-0.1,5.2-0.5,7.8-1.2c5.8-1.6,10.3-5,13.5-10.1c2.9-4.7,4.6-9.7,5.5-15.1
		c0.3-1.9,0.5-3.7,0.7-5.6c0.1,0.8,0.1,1.7,0.2,2.5c0.6,6.2,2.2,12.1,5.3,17.5c1.9,3.3,4.3,6.2,7.6,8.2c2.9,1.8,6.1,2.8,9.4,3.4
		c1.3,0.2,2.6,0.3,3.9,0.5c-1.5,0.1-3,0.3-4.6,0.5c-5.2,0.9-9.9,3-13.4,7.2c-2.5,2.9-4.3,6.3-5.6,9.9c-1.5,3.9-2.3,7.9-2.7,12.1
		C69.7,264,69.7,264.8,69.6,265.6z M69.6,210.2c-0.1,0.3-0.1,0.4-0.2,0.6c-1,3.9-2.5,7.7-4.5,11.2c-3,5.2-7.3,9-13.1,10.9
		c-0.4,0.2-0.9,0.3-1.4,0.4c0.3,0.1,0.4,0.1,0.6,0.2c5.1,1.5,9.2,4.4,12.3,8.7c2.6,3.7,4.4,7.7,5.7,12c0.1,0.4,0.2,0.8,0.3,1.2
		c0.1,0.4,0.2,0.7,0.3,1.2c0.1-0.2,0.1-0.4,0.1-0.5c0.9-3.9,2.4-7.6,4.3-11.2c3.1-5.7,7.8-9.6,14.1-11.4c0.1,0,0.2,0,0.3-0.2
		c-0.2,0-0.3-0.1-0.5-0.2c-4.6-1.4-8.5-3.9-11.5-7.7c-1.8-2.3-3.2-4.9-4.4-7.6C71,215.5,70.2,213,69.6,210.2z"/>
</g>
<g id="ai2html-settings">
	<rect x="-450" class="st2" width="400" height="456"/>
	<text id="ai2html-settings_00000158713061629764182140000004649005799099870360_" transform="matrix(1 0 0 1 -450 10.6499)"><tspan x="0" y="0" style="font-family:'MyriadPro-Regular'; font-size:15px;">ai2html-settings</tspan><tspan x="0" y="19" style="font-family:'MyriadPro-Regular'; font-size:15px;">settings_version: 0.120.0</tspan><tspan x="0" y="38" style="font-family:'MyriadPro-Regular'; font-size:15px;">image_format: auto</tspan><tspan x="0" y="57" style="font-family:'MyriadPro-Regular'; font-size:15px;">responsiveness: fixed</tspan><tspan x="0" y="76" style="font-family:'MyriadPro-Regular'; font-size:15px;">include_resizer_script: false</tspan><tspan x="0" y="95" style="font-family:'MyriadPro-Regular'; font-size:15px;">use_lazy_loader: false</tspan><tspan x="0" y="114" style="font-family:'MyriadPro-Regular'; font-size:15px;">output: one-file</tspan><tspan x="0" y="133" style="font-family:'MyriadPro-Regular'; font-size:15px;">html_output_path: ai2html-output/</tspan><tspan x="0" y="152" style="font-family:'MyriadPro-Regular'; font-size:15px;">image_output_path: ai2html-output/</tspan><tspan x="0" y="171" style="font-family:'MyriadPro-Regular'; font-size:15px;">image_source_path: </tspan><tspan x="0" y="190" style="font-family:'MyriadPro-Regular'; font-size:15px;">local_preview_template: </tspan><tspan x="0" y="209" style="font-family:'MyriadPro-Regular'; font-size:15px;">png_number_of_colors: 128</tspan><tspan x="0" y="228" style="font-family:'MyriadPro-Regular'; font-size:15px;">jpg_quality: 60</tspan><tspan x="0" y="247" style="font-family:'MyriadPro-Regular'; font-size:15px;">headline: </tspan><tspan x="0" y="266" style="font-family:'MyriadPro-Regular'; font-size:15px;">leadin: </tspan><tspan x="0" y="285" style="font-family:'MyriadPro-Regular'; font-size:15px;">notes: </tspan><tspan x="0" y="304" style="font-family:'MyriadPro-Regular'; font-size:15px;">sources: </tspan><tspan x="0" y="323" style="font-family:'MyriadPro-Regular'; font-size:15px;">credit: </tspan></text>
</g>
</svg>
